<svg width="273" height="61" viewBox="0 0 273 61" fill="none" xmlns="http://www.w3.org/2000/svg">
<path d="M7 7H266V54H7V7Z" fill="white"/>
<path d="M10.5 5.5C10.5 7 9.8 9.3 7 6.5C4.2 3.7 8.16667 3 10.5 3H262.5C264.833 3 268.8 3.7 266 6.5C263.2 9.3 262.5 7 262.5 5.5M10.5 55.3192C10.5 53.8192 9.8 51.5192 7 54.3192C4.2 57.1192 8.16667 57.8192 10.5 57.8192H262.5C264.833 57.8192 268.8 57.1192 266 54.3192C263.2 51.5192 262.5 53.8192 262.5 55.3192M5.50002 10.463C7.00002 10.463 9.30002 9.76305 6.50002 6.96305C3.70002 4.16305 3.00002 8.12971 3.00002 10.463V50.5C3.00002 52.8333 3.70002 56.8 6.50002 54C9.30002 51.2 7.00002 50.5 5.50002 50.5M267.319 10.463C265.819 10.463 263.519 9.76305 266.319 6.96305C269.119 4.16305 269.819 8.12971 269.819 10.463V50.5C269.819 52.8333 269.119 56.8 266.319 54C263.519 51.2 265.819 50.5 267.319 50.5M5 3C5 4.10457 4.10457 5 3 5C1.89543 5 1 4.10457 1 3C1 1.89543 1.89543 1 3 1C4.10457 1 5 1.89543 5 3ZM5 58C5 59.1046 4.10457 60 3 60C1.89543 60 1 59.1046 1 58C1 56.8954 1.89543 56 3 56C4.10457 56 5 56.8954 5 58ZM272 3C272 4.10457 271.105 5 270 5C268.895 5 268 4.10457 268 3C268 1.89543 268.895 1 270 1C271.105 1 272 1.89543 272 3ZM272 58C272 59.1046 271.105 60 270 60C268.895 60 268 59.1046 268 58C268 56.8954 268.895 56 270 56C271.105 56 272 56.8954 272 58Z" stroke="#C09068" stroke-width="1.58" stroke-linecap="round"/>
<path d="M30.5469 30.4814C30.8294 30.6729 31.0641 30.9235 31.251 31.2334C31.4378 31.5433 31.5312 31.9193 31.5312 32.3613C31.5312 32.8125 31.4333 33.2044 31.2373 33.5371C31.0413 33.8698 30.7861 34.1432 30.4717 34.3574C30.1663 34.5671 29.82 34.7266 29.4326 34.8359C29.0498 34.9453 28.6533 35 28.2432 35H23.6494V34.5146C23.7588 34.5055 23.9183 34.4873 24.1279 34.46C24.3376 34.4281 24.488 34.3916 24.5791 34.3506C24.7204 34.2868 24.8206 34.2025 24.8799 34.0977C24.9391 33.9883 24.9688 33.8493 24.9688 33.6807V26.708C24.9688 26.5531 24.9414 26.4163 24.8867 26.2979C24.8366 26.1794 24.734 26.0837 24.5791 26.0107C24.4424 25.9424 24.2897 25.89 24.1211 25.8535C23.9525 25.8171 23.8112 25.7943 23.6973 25.7852V25.2998H28.1748C28.5212 25.2998 28.8516 25.334 29.166 25.4023C29.485 25.4707 29.7881 25.5915 30.0752 25.7646C30.3441 25.9242 30.5651 26.1406 30.7383 26.4141C30.9115 26.6875 30.998 27.0202 30.998 27.4121C30.998 27.7539 30.9365 28.0592 30.8135 28.3281C30.6904 28.5924 30.5173 28.8203 30.2939 29.0117C30.0843 29.194 29.8428 29.349 29.5693 29.4766C29.3005 29.5996 29.0088 29.6953 28.6943 29.7637V29.8252C28.9723 29.8571 29.2822 29.9277 29.624 30.0371C29.9704 30.1419 30.278 30.29 30.5469 30.4814ZM28.8994 29.0186C29.068 28.8226 29.1842 28.6084 29.248 28.376C29.3164 28.1436 29.3506 27.8678 29.3506 27.5488C29.3506 27.0156 29.2048 26.5986 28.9131 26.2979C28.6214 25.9925 28.1611 25.8398 27.5322 25.8398C27.3864 25.8398 27.2018 25.8444 26.9785 25.8535C26.7598 25.8581 26.5752 25.8626 26.4248 25.8672V29.5928H27.293C27.6667 29.5928 27.9857 29.5449 28.25 29.4492C28.5189 29.3535 28.7354 29.21 28.8994 29.0186ZM29.8428 32.1152C29.8428 31.541 29.6491 31.0693 29.2617 30.7002C28.8789 30.3311 28.3298 30.1465 27.6143 30.1465C27.3226 30.1465 27.0765 30.151 26.876 30.1602C26.6755 30.1647 26.5251 30.1693 26.4248 30.1738V33.5918C26.4248 33.8789 26.541 34.0954 26.7734 34.2412C27.0059 34.387 27.3294 34.46 27.7441 34.46C28.4232 34.46 28.9427 34.2617 29.3027 33.8652C29.6628 33.4688 29.8428 32.8854 29.8428 32.1152ZM37.4375 32.8945C37.4375 32.5117 37.2985 32.1859 37.0205 31.917C36.7425 31.6436 36.3369 31.5068 35.8037 31.5068C35.5804 31.5068 35.3958 31.516 35.25 31.5342C35.1042 31.5479 34.9925 31.5547 34.915 31.5547V33.9609C34.915 34.1523 34.9834 34.2959 35.1201 34.3916C35.2614 34.4873 35.5143 34.5352 35.8789 34.5352C36.1888 34.5352 36.4463 34.485 36.6514 34.3848C36.861 34.2845 37.0205 34.1569 37.1299 34.002C37.2484 33.8333 37.3281 33.6579 37.3691 33.4756C37.4147 33.2933 37.4375 33.0996 37.4375 32.8945ZM38.8184 32.9287C38.8184 33.2887 38.7409 33.6009 38.5859 33.8652C38.431 34.125 38.2305 34.3392 37.9844 34.5078C37.7383 34.6719 37.4648 34.7949 37.1641 34.877C36.8633 34.959 36.5488 35 36.2207 35H32.666V34.5488C32.7708 34.5397 32.8779 34.5306 32.9873 34.5215C33.1012 34.5124 33.1992 34.4941 33.2812 34.4668C33.4089 34.4258 33.5023 34.3551 33.5615 34.2549C33.6253 34.1501 33.6572 34.0156 33.6572 33.8516V29.4766C33.6572 29.3262 33.6253 29.2008 33.5615 29.1006C33.4977 28.9958 33.402 28.916 33.2744 28.8613C33.1559 28.8066 33.0397 28.7702 32.9258 28.752C32.8164 28.7337 32.7139 28.7201 32.6182 28.7109V28.2598H36.0156V28.7109C35.8789 28.7201 35.7445 28.7314 35.6123 28.7451C35.4847 28.7542 35.3776 28.7702 35.291 28.793C35.1497 28.834 35.0518 28.9115 34.9971 29.0254C34.9424 29.1393 34.915 29.2669 34.915 29.4082V31.0146C35.0973 31.0101 35.2523 31.0055 35.3799 31.001C35.512 30.9919 35.7012 30.9873 35.9473 30.9873C36.3893 30.9873 36.7767 31.0238 37.1094 31.0967C37.4466 31.165 37.7383 31.2721 37.9844 31.418C38.2487 31.5729 38.4538 31.7712 38.5996 32.0127C38.7454 32.2542 38.8184 32.5596 38.8184 32.9287ZM42.291 35H39.0029V34.5488C39.1077 34.5397 39.2126 34.5306 39.3174 34.5215C39.4268 34.5124 39.5225 34.4941 39.6045 34.4668C39.7321 34.4258 39.8301 34.3551 39.8984 34.2549C39.9668 34.1501 40.001 34.0156 40.001 33.8516V29.4766C40.001 29.3262 39.9691 29.2008 39.9053 29.1006C39.8415 28.9958 39.7458 28.916 39.6182 28.8613C39.4997 28.8066 39.3835 28.7702 39.2695 28.752C39.1602 28.7337 39.0576 28.7201 38.9619 28.7109V28.2598H42.2637V28.7109C42.1315 28.7201 42.0153 28.7314 41.915 28.7451C41.8193 28.7588 41.7305 28.7747 41.6484 28.793C41.5208 28.8294 41.4251 28.9023 41.3613 29.0117C41.3021 29.1165 41.2725 29.2487 41.2725 29.4082V33.7832C41.2725 33.9427 41.2998 34.0726 41.3545 34.1729C41.4092 34.2686 41.5026 34.3438 41.6348 34.3984C41.7305 34.444 41.833 34.4782 41.9424 34.501C42.0563 34.5238 42.1725 34.5397 42.291 34.5488V35ZM47.9785 33.7627C48.138 33.4528 48.2542 33.1224 48.3271 32.7715C48.4001 32.4206 48.4365 32.0173 48.4365 31.5615C48.4365 31.1969 48.4069 30.8392 48.3477 30.4883C48.2884 30.1328 48.1882 29.8161 48.0469 29.5381C47.901 29.2555 47.7142 29.0345 47.4863 28.875C47.263 28.7109 46.9736 28.6289 46.6182 28.6289C46.249 28.6289 45.9414 28.7178 45.6953 28.8955C45.4492 29.0732 45.2487 29.3034 45.0938 29.5859C44.9479 29.8639 44.8431 30.1807 44.7793 30.5361C44.7155 30.887 44.6836 31.2288 44.6836 31.5615C44.6836 32.0902 44.7201 32.5368 44.793 32.9014C44.8704 33.266 44.9798 33.5758 45.1211 33.8311C45.2715 34.109 45.4629 34.321 45.6953 34.4668C45.9277 34.6126 46.2171 34.6855 46.5635 34.6855C46.8779 34.6855 47.1536 34.6035 47.3906 34.4395C47.6322 34.2708 47.8281 34.0452 47.9785 33.7627ZM43.9795 30.0029L44.0342 30.0166C44.2529 29.4697 44.5879 29.0163 45.0391 28.6562C45.4948 28.2917 46.028 28.1094 46.6387 28.1094C47.1491 28.1094 47.6071 28.196 48.0127 28.3691C48.4183 28.5378 48.7578 28.777 49.0312 29.0869C49.3001 29.3877 49.5029 29.75 49.6396 30.1738C49.7809 30.5977 49.8516 31.0579 49.8516 31.5547C49.8516 32.0423 49.7764 32.5117 49.626 32.9629C49.4756 33.4141 49.2568 33.8014 48.9697 34.125C48.6689 34.4668 48.3158 34.7334 47.9102 34.9248C47.5046 35.1117 47.0238 35.2051 46.4678 35.2051C46.0485 35.2051 45.6429 35.1208 45.251 34.9521C44.8636 34.7835 44.5264 34.5283 44.2393 34.1865C43.943 33.8402 43.7083 33.3913 43.5352 32.8398C43.3665 32.2884 43.2822 31.6413 43.2822 30.8984C43.2822 30.1829 43.3301 29.5495 43.4258 28.998C43.526 28.4421 43.6514 27.9316 43.8018 27.4668C44.0068 26.8242 44.3327 26.3047 44.7793 25.9082C45.2259 25.5072 45.7751 25.2884 46.4268 25.252C46.7503 25.2337 47.0921 25.2155 47.4521 25.1973C47.8167 25.179 48.1016 25.1608 48.3066 25.1426C48.4935 25.1289 48.6781 25.0765 48.8604 24.9854C49.0426 24.8896 49.2249 24.7256 49.4072 24.4932L49.7969 24.7734C49.6966 24.9102 49.5599 25.0879 49.3867 25.3066C49.2181 25.5254 49.07 25.7008 48.9424 25.833C48.8376 25.9469 48.7487 26.0404 48.6758 26.1133C48.6029 26.1862 48.5322 26.2386 48.4639 26.2705C48.391 26.3115 48.3021 26.3411 48.1973 26.3594C48.0924 26.3776 47.9557 26.3913 47.7871 26.4004C47.5911 26.4095 47.3519 26.4255 47.0693 26.4482C46.7913 26.471 46.5498 26.4847 46.3447 26.4893C46.0303 26.5029 45.7591 26.5758 45.5312 26.708C45.3034 26.8356 45.1074 26.9906 44.9434 27.1729C44.7793 27.3551 44.6471 27.5579 44.5469 27.7812C44.4466 28.0046 44.3691 28.2005 44.3145 28.3691C44.2279 28.6562 44.1549 28.9342 44.0957 29.2031C44.041 29.4674 44.0023 29.734 43.9795 30.0029ZM56.8242 33.4141C56.5417 33.9518 56.1634 34.3802 55.6895 34.6992C55.2155 35.0182 54.6709 35.1777 54.0557 35.1777C53.5133 35.1777 53.0371 35.082 52.627 34.8906C52.2214 34.6992 51.8864 34.4395 51.6221 34.1113C51.3577 33.7832 51.1595 33.4004 51.0273 32.9629C50.8997 32.5254 50.8359 32.0628 50.8359 31.5752C50.8359 31.1377 50.9043 30.7093 51.041 30.29C51.1823 29.8662 51.3874 29.4857 51.6562 29.1484C51.916 28.8249 52.2373 28.5651 52.6201 28.3691C53.0075 28.1686 53.4404 28.0684 53.9189 28.0684C54.4111 28.0684 54.8327 28.1458 55.1836 28.3008C55.5345 28.4557 55.8193 28.6676 56.0381 28.9365C56.2477 29.1917 56.4027 29.4925 56.5029 29.8389C56.6077 30.1852 56.6602 30.5612 56.6602 30.9668V31.418H52.1963C52.1963 31.86 52.2373 32.2611 52.3193 32.6211C52.4059 32.9811 52.5404 33.2979 52.7227 33.5713C52.9004 33.8356 53.1328 34.0452 53.4199 34.2002C53.707 34.3506 54.0488 34.4258 54.4453 34.4258C54.8509 34.4258 55.1995 34.3324 55.4912 34.1455C55.7874 33.9541 56.0723 33.6123 56.3457 33.1201L56.8242 33.4141ZM55.3135 30.8438C55.3135 30.5885 55.2907 30.3151 55.2451 30.0234C55.2041 29.7318 55.1357 29.488 55.04 29.292C54.9352 29.0824 54.7917 28.9115 54.6094 28.7793C54.4271 28.6471 54.1924 28.5811 53.9053 28.5811C53.4268 28.5811 53.028 28.7816 52.709 29.1826C52.3945 29.5791 52.2236 30.1328 52.1963 30.8438H55.3135ZM63.7627 29.0596C64.0316 29.3786 64.2389 29.75 64.3848 30.1738C64.5352 30.5931 64.6104 31.0739 64.6104 31.6162C64.6104 32.1494 64.5215 32.637 64.3438 33.0791C64.166 33.5166 63.9313 33.8903 63.6396 34.2002C63.3343 34.5146 62.9948 34.7562 62.6211 34.9248C62.2474 35.0934 61.8509 35.1777 61.4316 35.1777C61.026 35.1777 60.6934 35.1322 60.4336 35.041C60.1738 34.9499 59.9619 34.8428 59.7979 34.7197H59.7432V36.7432C59.7432 36.9072 59.7751 37.0439 59.8389 37.1533C59.9027 37.2627 60.0007 37.3424 60.1328 37.3926C60.2422 37.4336 60.3971 37.4723 60.5977 37.5088C60.8027 37.5498 60.9714 37.5726 61.1035 37.5771V38.0352H57.3369V37.5771C57.4782 37.568 57.6149 37.5566 57.7471 37.543C57.8792 37.5293 57.9977 37.5065 58.1025 37.4746C58.2393 37.429 58.335 37.3493 58.3896 37.2354C58.4443 37.1214 58.4717 36.987 58.4717 36.832V29.6611C58.4717 29.5244 58.4375 29.3923 58.3691 29.2646C58.3008 29.137 58.2119 29.0345 58.1025 28.957C58.0205 28.9023 57.9066 28.8613 57.7607 28.834C57.6149 28.8021 57.4736 28.7816 57.3369 28.7725V28.3281L59.6338 28.1777L59.7295 28.2598V29.0186L59.7842 29.0322C60.0212 28.7588 60.3151 28.5309 60.666 28.3486C61.0169 28.1663 61.3656 28.0752 61.7119 28.0752C62.1312 28.0752 62.514 28.1641 62.8604 28.3418C63.2113 28.5195 63.512 28.7588 63.7627 29.0596ZM62.6484 33.9062C62.8307 33.6237 62.9652 33.2956 63.0518 32.9219C63.1383 32.5482 63.1816 32.1312 63.1816 31.6709C63.1816 31.3337 63.1452 30.9896 63.0723 30.6387C62.9993 30.2878 62.8854 29.9824 62.7305 29.7227C62.5755 29.4583 62.3727 29.2441 62.1221 29.0801C61.8714 28.916 61.5706 28.834 61.2197 28.834C60.8825 28.834 60.5954 28.9092 60.3584 29.0596C60.1214 29.2054 59.9163 29.3809 59.7432 29.5859V33.5713C59.7842 33.6943 59.8503 33.8219 59.9414 33.9541C60.0371 34.0863 60.1419 34.2002 60.2559 34.2959C60.3971 34.4098 60.5498 34.5033 60.7139 34.5762C60.8779 34.6445 61.0785 34.6787 61.3154 34.6787C61.5706 34.6787 61.8167 34.6126 62.0537 34.4805C62.2907 34.3438 62.4889 34.1523 62.6484 33.9062ZM73.2031 35H69.9287V34.5488C70.0335 34.5397 70.1406 34.5306 70.25 34.5215C70.3639 34.5124 70.4619 34.4941 70.5439 34.4668C70.6715 34.4258 70.7695 34.3551 70.8379 34.2549C70.9062 34.1501 70.9404 34.0156 70.9404 33.8516V30.3105L67.8369 33.667V33.7832C67.8369 33.9382 67.8688 34.0658 67.9326 34.166C67.9964 34.2663 68.0921 34.3438 68.2197 34.3984C68.32 34.444 68.4248 34.4782 68.5342 34.501C68.6481 34.5238 68.7666 34.5397 68.8896 34.5488V35H65.6152V34.5488C65.7201 34.5397 65.8271 34.5306 65.9365 34.5215C66.0505 34.5124 66.1484 34.4941 66.2305 34.4668C66.3581 34.4258 66.4515 34.3551 66.5107 34.2549C66.5745 34.1501 66.6064 34.0156 66.6064 33.8516V29.4766C66.6064 29.3262 66.5745 29.2008 66.5107 29.1006C66.4469 28.9958 66.3512 28.916 66.2236 28.8613C66.1051 28.8066 65.9889 28.7702 65.875 28.752C65.7656 28.7337 65.6631 28.7201 65.5674 28.7109V28.2598H68.8418V28.7109C68.7096 28.7201 68.5934 28.7314 68.4932 28.7451C68.3975 28.7588 68.3086 28.7747 68.2266 28.793C68.099 28.8294 68.0033 28.9023 67.9395 29.0117C67.8802 29.1165 67.8506 29.2487 67.8506 29.4082V32.8945L70.9541 29.5312C70.9541 29.3307 70.9222 29.1826 70.8584 29.0869C70.7946 28.9912 70.6989 28.916 70.5713 28.8613C70.4528 28.8066 70.3343 28.7702 70.2158 28.752C70.1019 28.7337 69.9971 28.7201 69.9014 28.7109V28.2598H73.1758V28.7109C73.0436 28.7201 72.9274 28.7314 72.8271 28.7451C72.7314 28.7588 72.6426 28.7747 72.5605 28.793C72.4329 28.8294 72.3372 28.9023 72.2734 29.0117C72.2142 29.1165 72.1846 29.2487 72.1846 29.4082V33.7832C72.1846 33.9427 72.2119 34.0726 72.2666 34.1729C72.3213 34.2686 72.4147 34.3438 72.5469 34.3984C72.6426 34.444 72.7451 34.4782 72.8545 34.501C72.9684 34.5238 73.0846 34.5397 73.2031 34.5488V35ZM80.1211 30.4199H79.7041C79.6631 30.2923 79.6016 30.1419 79.5195 29.9688C79.4421 29.7956 79.3555 29.6315 79.2598 29.4766C79.1595 29.3079 79.0456 29.1598 78.918 29.0322C78.7949 28.9001 78.665 28.8249 78.5283 28.8066C78.387 28.793 78.2298 28.7839 78.0566 28.7793C77.8835 28.7702 77.7354 28.7656 77.6123 28.7656V33.7832C77.6123 33.9382 77.6442 34.0658 77.708 34.166C77.7718 34.2663 77.8675 34.3438 77.9951 34.3984C78.0954 34.444 78.2093 34.4782 78.3369 34.501C78.4645 34.5238 78.5898 34.5397 78.7129 34.5488V35H75.2812V34.5488C75.3861 34.5397 75.5046 34.5306 75.6367 34.5215C75.7734 34.5124 75.8828 34.4941 75.9648 34.4668C76.0924 34.4258 76.1859 34.3551 76.2451 34.2549C76.3089 34.1501 76.3408 34.0156 76.3408 33.8516V28.7656C76.195 28.7702 76.0309 28.777 75.8486 28.7861C75.6663 28.7907 75.5228 28.7975 75.418 28.8066C75.2995 28.8158 75.1719 28.891 75.0352 29.0322C74.903 29.1735 74.7868 29.3216 74.6865 29.4766C74.5908 29.6315 74.502 29.8047 74.4199 29.9961C74.3379 30.1829 74.2809 30.3242 74.249 30.4199H73.832V28.2598H80.1211V30.4199ZM86.752 33.4141C86.4694 33.9518 86.0911 34.3802 85.6172 34.6992C85.1432 35.0182 84.5986 35.1777 83.9834 35.1777C83.4411 35.1777 82.9648 35.082 82.5547 34.8906C82.1491 34.6992 81.8141 34.4395 81.5498 34.1113C81.2855 33.7832 81.0872 33.4004 80.9551 32.9629C80.8275 32.5254 80.7637 32.0628 80.7637 31.5752C80.7637 31.1377 80.832 30.7093 80.9688 30.29C81.11 29.8662 81.3151 29.4857 81.584 29.1484C81.8438 28.8249 82.165 28.5651 82.5479 28.3691C82.9352 28.1686 83.3682 28.0684 83.8467 28.0684C84.3389 28.0684 84.7604 28.1458 85.1113 28.3008C85.4622 28.4557 85.7471 28.6676 85.9658 28.9365C86.1755 29.1917 86.3304 29.4925 86.4307 29.8389C86.5355 30.1852 86.5879 30.5612 86.5879 30.9668V31.418H82.124C82.124 31.86 82.165 32.2611 82.2471 32.6211C82.3337 32.9811 82.4681 33.2979 82.6504 33.5713C82.8281 33.8356 83.0605 34.0452 83.3477 34.2002C83.6348 34.3506 83.9766 34.4258 84.373 34.4258C84.7786 34.4258 85.1273 34.3324 85.4189 34.1455C85.7152 33.9541 86 33.6123 86.2734 33.1201L86.752 33.4141ZM85.2412 30.8438C85.2412 30.5885 85.2184 30.3151 85.1729 30.0234C85.1318 29.7318 85.0635 29.488 84.9678 29.292C84.863 29.0824 84.7194 28.9115 84.5371 28.7793C84.3548 28.6471 84.1201 28.5811 83.833 28.5811C83.3545 28.5811 82.9557 28.7816 82.6367 29.1826C82.3223 29.5791 82.1514 30.1328 82.124 30.8438H85.2412ZM97.0674 29.0596C97.3363 29.3786 97.5436 29.75 97.6895 30.1738C97.8398 30.5931 97.915 31.0739 97.915 31.6162C97.915 32.1494 97.8262 32.637 97.6484 33.0791C97.4707 33.5166 97.236 33.8903 96.9443 34.2002C96.639 34.5146 96.2995 34.7562 95.9258 34.9248C95.5521 35.0934 95.1556 35.1777 94.7363 35.1777C94.3307 35.1777 93.998 35.1322 93.7383 35.041C93.4785 34.9499 93.2666 34.8428 93.1025 34.7197H93.0479V36.7432C93.0479 36.9072 93.0798 37.0439 93.1436 37.1533C93.2074 37.2627 93.3053 37.3424 93.4375 37.3926C93.5469 37.4336 93.7018 37.4723 93.9023 37.5088C94.1074 37.5498 94.276 37.5726 94.4082 37.5771V38.0352H90.6416V37.5771C90.7829 37.568 90.9196 37.5566 91.0518 37.543C91.1839 37.5293 91.3024 37.5065 91.4072 37.4746C91.5439 37.429 91.6396 37.3493 91.6943 37.2354C91.749 37.1214 91.7764 36.987 91.7764 36.832V29.6611C91.7764 29.5244 91.7422 29.3923 91.6738 29.2646C91.6055 29.137 91.5166 29.0345 91.4072 28.957C91.3252 28.9023 91.2113 28.8613 91.0654 28.834C90.9196 28.8021 90.7783 28.7816 90.6416 28.7725V28.3281L92.9385 28.1777L93.0342 28.2598V29.0186L93.0889 29.0322C93.3258 28.7588 93.6198 28.5309 93.9707 28.3486C94.3216 28.1663 94.6702 28.0752 95.0166 28.0752C95.4359 28.0752 95.8187 28.1641 96.165 28.3418C96.516 28.5195 96.8167 28.7588 97.0674 29.0596ZM95.9531 33.9062C96.1354 33.6237 96.2699 33.2956 96.3564 32.9219C96.443 32.5482 96.4863 32.1312 96.4863 31.6709C96.4863 31.3337 96.4499 30.9896 96.377 30.6387C96.304 30.2878 96.1901 29.9824 96.0352 29.7227C95.8802 29.4583 95.6774 29.2441 95.4268 29.0801C95.1761 28.916 94.8753 28.834 94.5244 28.834C94.1872 28.834 93.9001 28.9092 93.6631 29.0596C93.4261 29.2054 93.221 29.3809 93.0479 29.5859V33.5713C93.0889 33.6943 93.1549 33.8219 93.2461 33.9541C93.3418 34.0863 93.4466 34.2002 93.5605 34.2959C93.7018 34.4098 93.8545 34.5033 94.0186 34.5762C94.1826 34.6445 94.3831 34.6787 94.6201 34.6787C94.8753 34.6787 95.1214 34.6126 95.3584 34.4805C95.5954 34.3438 95.7936 34.1523 95.9531 33.9062ZM105.291 34.877C105.077 34.9544 104.888 35.016 104.724 35.0615C104.564 35.1117 104.382 35.1367 104.177 35.1367C103.821 35.1367 103.536 35.0547 103.322 34.8906C103.113 34.722 102.978 34.4782 102.919 34.1592H102.878C102.582 34.4873 102.263 34.738 101.921 34.9111C101.584 35.0843 101.176 35.1709 100.697 35.1709C100.191 35.1709 99.7744 35.016 99.4463 34.7061C99.1227 34.3962 98.9609 33.9906 98.9609 33.4893C98.9609 33.2295 98.9974 32.9971 99.0703 32.792C99.1432 32.5869 99.2526 32.4023 99.3984 32.2383C99.5124 32.1016 99.6628 31.9808 99.8496 31.876C100.036 31.7666 100.212 31.68 100.376 31.6162C100.581 31.5387 100.996 31.3952 101.62 31.1855C102.249 30.9759 102.673 30.8118 102.892 30.6934V30.0166C102.892 29.9574 102.878 29.8434 102.851 29.6748C102.828 29.5062 102.775 29.3467 102.693 29.1963C102.602 29.0277 102.472 28.8818 102.304 28.7588C102.14 28.6312 101.905 28.5674 101.6 28.5674C101.39 28.5674 101.194 28.6038 101.012 28.6768C100.834 28.7451 100.709 28.818 100.636 28.8955C100.636 28.9867 100.656 29.1211 100.697 29.2988C100.743 29.4766 100.766 29.6406 100.766 29.791C100.766 29.9505 100.693 30.0964 100.547 30.2285C100.406 30.3607 100.207 30.4268 99.9521 30.4268C99.7243 30.4268 99.5557 30.347 99.4463 30.1875C99.3415 30.0234 99.2891 29.8411 99.2891 29.6406C99.2891 29.431 99.362 29.2305 99.5078 29.0391C99.6582 28.8477 99.8519 28.6768 100.089 28.5264C100.294 28.3988 100.542 28.2917 100.834 28.2051C101.126 28.1139 101.41 28.0684 101.688 28.0684C102.071 28.0684 102.404 28.0957 102.687 28.1504C102.974 28.2005 103.233 28.3122 103.466 28.4854C103.698 28.654 103.874 28.8841 103.992 29.1758C104.115 29.4629 104.177 29.8343 104.177 30.29C104.177 30.9417 104.17 31.5205 104.156 32.0264C104.143 32.5277 104.136 33.0768 104.136 33.6738C104.136 33.8516 104.165 33.9928 104.225 34.0977C104.288 34.2025 104.384 34.2913 104.512 34.3643C104.58 34.4053 104.687 34.4281 104.833 34.4326C104.983 34.4372 105.136 34.4395 105.291 34.4395V34.877ZM102.905 31.2676C102.518 31.3815 102.178 31.4932 101.887 31.6025C101.595 31.7119 101.324 31.8486 101.073 32.0127C100.845 32.1676 100.665 32.3522 100.533 32.5664C100.401 32.776 100.335 33.0267 100.335 33.3184C100.335 33.6966 100.433 33.9746 100.629 34.1523C100.829 34.3301 101.082 34.4189 101.388 34.4189C101.711 34.4189 101.996 34.3415 102.242 34.1865C102.488 34.027 102.696 33.8402 102.864 33.626L102.905 31.2676ZM113.562 35H110.288V34.5488C110.393 34.5397 110.5 34.5306 110.609 34.5215C110.723 34.5124 110.821 34.4941 110.903 34.4668C111.031 34.4258 111.129 34.3551 111.197 34.2549C111.266 34.1501 111.3 34.0156 111.3 33.8516V30.3105L108.196 33.667V33.7832C108.196 33.9382 108.228 34.0658 108.292 34.166C108.356 34.2663 108.451 34.3438 108.579 34.3984C108.679 34.444 108.784 34.4782 108.894 34.501C109.007 34.5238 109.126 34.5397 109.249 34.5488V35H105.975V34.5488C106.079 34.5397 106.187 34.5306 106.296 34.5215C106.41 34.5124 106.508 34.4941 106.59 34.4668C106.717 34.4258 106.811 34.3551 106.87 34.2549C106.934 34.1501 106.966 34.0156 106.966 33.8516V29.4766C106.966 29.3262 106.934 29.2008 106.87 29.1006C106.806 28.9958 106.711 28.916 106.583 28.8613C106.465 28.8066 106.348 28.7702 106.234 28.752C106.125 28.7337 106.022 28.7201 105.927 28.7109V28.2598H109.201V28.7109C109.069 28.7201 108.953 28.7314 108.853 28.7451C108.757 28.7588 108.668 28.7747 108.586 28.793C108.458 28.8294 108.363 28.9023 108.299 29.0117C108.24 29.1165 108.21 29.2487 108.21 29.4082V32.8945L111.313 29.5312C111.313 29.3307 111.282 29.1826 111.218 29.0869C111.154 28.9912 111.058 28.916 110.931 28.8613C110.812 28.8066 110.694 28.7702 110.575 28.752C110.461 28.7337 110.356 28.7201 110.261 28.7109V28.2598H113.535V28.7109C113.403 28.7201 113.287 28.7314 113.187 28.7451C113.091 28.7588 113.002 28.7747 112.92 28.793C112.792 28.8294 112.697 28.9023 112.633 29.0117C112.574 29.1165 112.544 29.2487 112.544 29.4082V33.7832C112.544 33.9427 112.571 34.0726 112.626 34.1729C112.681 34.2686 112.774 34.3438 112.906 34.3984C113.002 34.444 113.104 34.4782 113.214 34.501C113.328 34.5238 113.444 34.5397 113.562 34.5488V35ZM112.059 25.4912C112.059 25.6325 112.015 25.8011 111.929 25.9971C111.847 26.193 111.724 26.3639 111.56 26.5098C111.368 26.6784 111.136 26.8151 110.862 26.9199C110.593 27.0247 110.227 27.0771 109.762 27.0771C109.324 27.0771 108.962 27.0247 108.675 26.9199C108.388 26.8105 108.153 26.6738 107.971 26.5098C107.798 26.3503 107.672 26.1794 107.595 25.9971C107.522 25.8102 107.485 25.6416 107.485 25.4912C107.485 25.2725 107.549 25.0947 107.677 24.958C107.809 24.8167 107.966 24.7461 108.148 24.7461C108.317 24.7461 108.474 24.7962 108.62 24.8965C108.766 24.9967 108.839 25.1608 108.839 25.3887C108.839 25.5208 108.812 25.6689 108.757 25.833C108.702 25.9925 108.659 26.1087 108.627 26.1816C108.75 26.332 108.912 26.4437 109.112 26.5166C109.317 26.5895 109.534 26.626 109.762 26.626C109.962 26.626 110.174 26.5918 110.397 26.5234C110.621 26.4505 110.794 26.3366 110.917 26.1816C110.881 26.0951 110.835 25.972 110.78 25.8125C110.73 25.6484 110.705 25.5072 110.705 25.3887C110.705 25.1608 110.778 24.9967 110.924 24.8965C111.07 24.7962 111.225 24.7461 111.389 24.7461C111.576 24.7461 111.733 24.8167 111.86 24.958C111.993 25.0947 112.059 25.2725 112.059 25.4912ZM121.103 31.5615C121.103 32.0355 121.027 32.5026 120.877 32.9629C120.727 33.4186 120.512 33.806 120.234 34.125C119.92 34.4896 119.555 34.7607 119.141 34.9385C118.726 35.1162 118.261 35.2051 117.746 35.2051C117.318 35.2051 116.91 35.1253 116.522 34.9658C116.135 34.8018 115.791 34.5648 115.49 34.2549C115.194 33.9495 114.957 33.5781 114.779 33.1406C114.606 32.6986 114.52 32.2041 114.52 31.6572C114.52 30.6045 114.825 29.7432 115.436 29.0732C116.051 28.4033 116.855 28.0684 117.849 28.0684C118.792 28.0684 119.569 28.3874 120.18 29.0254C120.795 29.6589 121.103 30.5042 121.103 31.5615ZM119.688 31.5752C119.688 31.2334 119.653 30.8734 119.585 30.4951C119.517 30.1123 119.414 29.7887 119.277 29.5244C119.132 29.2419 118.94 29.0163 118.703 28.8477C118.466 28.6745 118.177 28.5879 117.835 28.5879C117.484 28.5879 117.183 28.6745 116.933 28.8477C116.687 29.0208 116.486 29.2578 116.331 29.5586C116.185 29.8366 116.083 30.1533 116.023 30.5088C115.964 30.8643 115.935 31.2083 115.935 31.541C115.935 31.9785 115.969 32.3841 116.037 32.7578C116.11 33.127 116.224 33.4574 116.379 33.749C116.534 34.0407 116.728 34.2708 116.96 34.4395C117.197 34.6035 117.489 34.6855 117.835 34.6855C118.405 34.6855 118.856 34.4098 119.188 33.8584C119.521 33.307 119.688 32.5459 119.688 31.5752ZM129.634 35H126.339V34.5488C126.444 34.5397 126.551 34.5306 126.66 34.5215C126.774 34.5124 126.872 34.4941 126.954 34.4668C127.082 34.4258 127.18 34.3551 127.248 34.2549C127.316 34.1501 127.351 34.0156 127.351 33.8516V31.7051H124.35V33.7832C124.35 33.9382 124.382 34.0658 124.445 34.166C124.509 34.2663 124.605 34.3438 124.732 34.3984C124.828 34.444 124.931 34.4782 125.04 34.501C125.154 34.5238 125.27 34.5397 125.389 34.5488V35H122.094V34.5488C122.199 34.5397 122.306 34.5306 122.415 34.5215C122.529 34.5124 122.627 34.4941 122.709 34.4668C122.837 34.4258 122.93 34.3551 122.989 34.2549C123.053 34.1501 123.085 34.0156 123.085 33.8516V29.4766C123.085 29.3262 123.053 29.2008 122.989 29.1006C122.925 28.9958 122.83 28.916 122.702 28.8613C122.584 28.8066 122.467 28.7702 122.354 28.752C122.244 28.7337 122.142 28.7201 122.046 28.7109V28.2598H125.341V28.7109C125.209 28.7201 125.092 28.7314 124.992 28.7451C124.896 28.7588 124.808 28.7747 124.726 28.793C124.598 28.8294 124.502 28.9023 124.438 29.0117C124.379 29.1165 124.35 29.2487 124.35 29.4082V31.1445H127.351V29.4766C127.351 29.3262 127.319 29.2008 127.255 29.1006C127.191 28.9958 127.095 28.916 126.968 28.8613C126.849 28.8066 126.733 28.7702 126.619 28.752C126.51 28.7337 126.407 28.7201 126.312 28.7109V28.2598H129.606V28.7109C129.474 28.7201 129.358 28.7314 129.258 28.7451C129.162 28.7588 129.073 28.7747 128.991 28.793C128.864 28.8294 128.768 28.9023 128.704 29.0117C128.645 29.1165 128.615 29.2487 128.615 29.4082V33.7832C128.615 33.9427 128.643 34.0726 128.697 34.1729C128.752 34.2686 128.845 34.3438 128.978 34.3984C129.073 34.444 129.176 34.4782 129.285 34.501C129.399 34.5238 129.515 34.5397 129.634 34.5488V35Z" fill="#3E3E3E"/>
<path d="M138.288 37.2422C137.044 37.0872 136.066 36.4606 135.355 35.3623C134.649 34.264 134.296 32.7852 134.296 30.9258C134.296 29.0345 134.649 27.5374 135.355 26.4346C136.066 25.3271 137.044 24.6914 138.288 24.5273V25.0947C137.413 25.2542 136.748 25.8125 136.292 26.7695C135.836 27.7266 135.608 29.1165 135.608 30.9395C135.608 32.6758 135.832 34.027 136.278 34.9932C136.725 35.9548 137.395 36.5176 138.288 36.6816V37.2422ZM143.688 35.2256C143.11 35.2256 142.554 35.1117 142.021 34.8838C141.492 34.6559 141.022 34.3278 140.612 33.8994C140.207 33.471 139.883 32.9492 139.642 32.334C139.4 31.7142 139.279 31.0169 139.279 30.2422C139.279 29.4674 139.398 28.7656 139.635 28.1367C139.872 27.5033 140.2 26.9587 140.619 26.5029C141.034 26.0518 141.524 25.7031 142.089 25.457C142.654 25.2109 143.258 25.0879 143.9 25.0879C144.379 25.0879 144.812 25.1471 145.199 25.2656C145.587 25.3841 145.956 25.5505 146.307 25.7646L146.587 25.2998H147.134L147.195 28.7588H146.635C146.562 28.4215 146.452 28.057 146.307 27.665C146.161 27.2686 145.99 26.9336 145.794 26.6602C145.575 26.3503 145.315 26.1087 145.015 25.9355C144.714 25.7578 144.37 25.6689 143.982 25.6689C143.54 25.6689 143.128 25.7669 142.745 25.9629C142.367 26.1589 142.039 26.4482 141.761 26.8311C141.496 27.2002 141.289 27.6696 141.139 28.2393C140.988 28.8089 140.913 29.4447 140.913 30.1465C140.913 30.7663 140.991 31.3359 141.146 31.8555C141.305 32.3704 141.531 32.8239 141.822 33.2158C142.114 33.6032 142.458 33.9062 142.854 34.125C143.256 34.3438 143.702 34.4531 144.194 34.4531C144.563 34.4531 144.903 34.3962 145.213 34.2822C145.523 34.1637 145.792 34.0088 146.02 33.8174C146.247 33.6169 146.448 33.389 146.621 33.1338C146.794 32.8786 146.936 32.6006 147.045 32.2998L147.558 32.5459C147.166 33.5075 146.646 34.1956 145.999 34.6104C145.352 35.0205 144.582 35.2256 143.688 35.2256ZM154.619 34.877C154.405 34.9544 154.216 35.016 154.052 35.0615C153.892 35.1117 153.71 35.1367 153.505 35.1367C153.149 35.1367 152.865 35.0547 152.65 34.8906C152.441 34.722 152.306 34.4782 152.247 34.1592H152.206C151.91 34.4873 151.591 34.738 151.249 34.9111C150.912 35.0843 150.504 35.1709 150.025 35.1709C149.52 35.1709 149.103 35.016 148.774 34.7061C148.451 34.3962 148.289 33.9906 148.289 33.4893C148.289 33.2295 148.326 32.9971 148.398 32.792C148.471 32.5869 148.581 32.4023 148.727 32.2383C148.84 32.1016 148.991 31.9808 149.178 31.876C149.365 31.7666 149.54 31.68 149.704 31.6162C149.909 31.5387 150.324 31.3952 150.948 31.1855C151.577 30.9759 152.001 30.8118 152.22 30.6934V30.0166C152.22 29.9574 152.206 29.8434 152.179 29.6748C152.156 29.5062 152.104 29.3467 152.021 29.1963C151.93 29.0277 151.8 28.8818 151.632 28.7588C151.468 28.6312 151.233 28.5674 150.928 28.5674C150.718 28.5674 150.522 28.6038 150.34 28.6768C150.162 28.7451 150.037 28.818 149.964 28.8955C149.964 28.9867 149.984 29.1211 150.025 29.2988C150.071 29.4766 150.094 29.6406 150.094 29.791C150.094 29.9505 150.021 30.0964 149.875 30.2285C149.734 30.3607 149.535 30.4268 149.28 30.4268C149.052 30.4268 148.884 30.347 148.774 30.1875C148.67 30.0234 148.617 29.8411 148.617 29.6406C148.617 29.431 148.69 29.2305 148.836 29.0391C148.986 28.8477 149.18 28.6768 149.417 28.5264C149.622 28.3988 149.87 28.2917 150.162 28.2051C150.454 28.1139 150.739 28.0684 151.017 28.0684C151.399 28.0684 151.732 28.0957 152.015 28.1504C152.302 28.2005 152.562 28.3122 152.794 28.4854C153.026 28.654 153.202 28.8841 153.32 29.1758C153.443 29.4629 153.505 29.8343 153.505 30.29C153.505 30.9417 153.498 31.5205 153.484 32.0264C153.471 32.5277 153.464 33.0768 153.464 33.6738C153.464 33.8516 153.493 33.9928 153.553 34.0977C153.617 34.2025 153.712 34.2913 153.84 34.3643C153.908 34.4053 154.015 34.4281 154.161 34.4326C154.312 34.4372 154.464 34.4395 154.619 34.4395V34.877ZM152.233 31.2676C151.846 31.3815 151.507 31.4932 151.215 31.6025C150.923 31.7119 150.652 31.8486 150.401 32.0127C150.174 32.1676 149.993 32.3522 149.861 32.5664C149.729 32.776 149.663 33.0267 149.663 33.3184C149.663 33.6966 149.761 33.9746 149.957 34.1523C150.158 34.3301 150.41 34.4189 150.716 34.4189C151.039 34.4189 151.324 34.3415 151.57 34.1865C151.816 34.027 152.024 33.8402 152.192 33.626L152.233 31.2676ZM164.333 35H161.031V34.5488C161.136 34.5397 161.243 34.5306 161.353 34.5215C161.466 34.5124 161.564 34.4941 161.646 34.4668C161.779 34.4258 161.879 34.3529 161.947 34.248C162.02 34.1387 162.057 34.0065 162.057 33.8516V28.9707H161.893L159.609 34.8906H159.186L157.039 28.8545H156.889V33.5781C156.889 33.8105 156.921 33.9928 156.984 34.125C157.053 34.2572 157.148 34.3483 157.271 34.3984C157.367 34.444 157.47 34.4782 157.579 34.501C157.693 34.5238 157.809 34.5397 157.928 34.5488V35H155.303V34.5488C155.408 34.5397 155.515 34.5306 155.624 34.5215C155.738 34.5124 155.836 34.4941 155.918 34.4668C156.055 34.4212 156.15 34.3324 156.205 34.2002C156.264 34.0635 156.294 33.8789 156.294 33.6465V29.5449C156.294 29.3672 156.262 29.2236 156.198 29.1143C156.134 29.0003 156.039 28.916 155.911 28.8613C155.793 28.8066 155.676 28.7702 155.562 28.752C155.453 28.7337 155.351 28.7201 155.255 28.7109V28.2598H158.058L159.746 33.0859L161.236 29.0869C161.282 28.9548 161.332 28.7975 161.387 28.6152C161.441 28.4329 161.471 28.3145 161.476 28.2598H164.306V28.7109C164.174 28.7201 164.057 28.7314 163.957 28.7451C163.861 28.7588 163.772 28.7747 163.69 28.793C163.563 28.8294 163.467 28.9023 163.403 29.0117C163.344 29.1165 163.314 29.2487 163.314 29.4082V33.7832C163.314 33.9427 163.342 34.0726 163.396 34.1729C163.451 34.2686 163.545 34.3438 163.677 34.3984C163.772 34.444 163.875 34.4782 163.984 34.501C164.098 34.5238 164.215 34.5397 164.333 34.5488V35ZM171.695 34.877C171.481 34.9544 171.292 35.016 171.128 35.0615C170.968 35.1117 170.786 35.1367 170.581 35.1367C170.226 35.1367 169.941 35.0547 169.727 34.8906C169.517 34.722 169.382 34.4782 169.323 34.1592H169.282C168.986 34.4873 168.667 34.738 168.325 34.9111C167.988 35.0843 167.58 35.1709 167.102 35.1709C166.596 35.1709 166.179 35.016 165.851 34.7061C165.527 34.3962 165.365 33.9906 165.365 33.4893C165.365 33.2295 165.402 32.9971 165.475 32.792C165.548 32.5869 165.657 32.4023 165.803 32.2383C165.917 32.1016 166.067 31.9808 166.254 31.876C166.441 31.7666 166.616 31.68 166.78 31.6162C166.985 31.5387 167.4 31.3952 168.024 31.1855C168.653 30.9759 169.077 30.8118 169.296 30.6934V30.0166C169.296 29.9574 169.282 29.8434 169.255 29.6748C169.232 29.5062 169.18 29.3467 169.098 29.1963C169.007 29.0277 168.877 28.8818 168.708 28.7588C168.544 28.6312 168.309 28.5674 168.004 28.5674C167.794 28.5674 167.598 28.6038 167.416 28.6768C167.238 28.7451 167.113 28.818 167.04 28.8955C167.04 28.9867 167.061 29.1211 167.102 29.2988C167.147 29.4766 167.17 29.6406 167.17 29.791C167.17 29.9505 167.097 30.0964 166.951 30.2285C166.81 30.3607 166.612 30.4268 166.356 30.4268C166.129 30.4268 165.96 30.347 165.851 30.1875C165.746 30.0234 165.693 29.8411 165.693 29.6406C165.693 29.431 165.766 29.2305 165.912 29.0391C166.062 28.8477 166.256 28.6768 166.493 28.5264C166.698 28.3988 166.947 28.2917 167.238 28.2051C167.53 28.1139 167.815 28.0684 168.093 28.0684C168.476 28.0684 168.808 28.0957 169.091 28.1504C169.378 28.2005 169.638 28.3122 169.87 28.4854C170.103 28.654 170.278 28.8841 170.396 29.1758C170.52 29.4629 170.581 29.8343 170.581 30.29C170.581 30.9417 170.574 31.5205 170.561 32.0264C170.547 32.5277 170.54 33.0768 170.54 33.6738C170.54 33.8516 170.57 33.9928 170.629 34.0977C170.693 34.2025 170.788 34.2913 170.916 34.3643C170.984 34.4053 171.091 34.4281 171.237 34.4326C171.388 34.4372 171.54 34.4395 171.695 34.4395V34.877ZM169.31 31.2676C168.922 31.3815 168.583 31.4932 168.291 31.6025C167.999 31.7119 167.728 31.8486 167.478 32.0127C167.25 32.1676 167.07 32.3522 166.938 32.5664C166.805 32.776 166.739 33.0267 166.739 33.3184C166.739 33.6966 166.837 33.9746 167.033 34.1523C167.234 34.3301 167.487 34.4189 167.792 34.4189C168.116 34.4189 168.4 34.3415 168.646 34.1865C168.893 34.027 169.1 33.8402 169.269 33.626L169.31 31.2676ZM178.524 29.0596C178.793 29.3786 179.001 29.75 179.146 30.1738C179.297 30.5931 179.372 31.0739 179.372 31.6162C179.372 32.1494 179.283 32.637 179.105 33.0791C178.928 33.5166 178.693 33.8903 178.401 34.2002C178.096 34.5146 177.757 34.7562 177.383 34.9248C177.009 35.0934 176.613 35.1777 176.193 35.1777C175.788 35.1777 175.455 35.1322 175.195 35.041C174.936 34.9499 174.724 34.8428 174.56 34.7197H174.505V36.7432C174.505 36.9072 174.537 37.0439 174.601 37.1533C174.664 37.2627 174.762 37.3424 174.895 37.3926C175.004 37.4336 175.159 37.4723 175.359 37.5088C175.564 37.5498 175.733 37.5726 175.865 37.5771V38.0352H172.099V37.5771C172.24 37.568 172.377 37.5566 172.509 37.543C172.641 37.5293 172.759 37.5065 172.864 37.4746C173.001 37.429 173.097 37.3493 173.151 37.2354C173.206 37.1214 173.233 36.987 173.233 36.832V29.6611C173.233 29.5244 173.199 29.3923 173.131 29.2646C173.062 29.137 172.974 29.0345 172.864 28.957C172.782 28.9023 172.668 28.8613 172.522 28.834C172.377 28.8021 172.235 28.7816 172.099 28.7725V28.3281L174.396 28.1777L174.491 28.2598V29.0186L174.546 29.0322C174.783 28.7588 175.077 28.5309 175.428 28.3486C175.779 28.1663 176.127 28.0752 176.474 28.0752C176.893 28.0752 177.276 28.1641 177.622 28.3418C177.973 28.5195 178.274 28.7588 178.524 29.0596ZM177.41 33.9062C177.592 33.6237 177.727 33.2956 177.813 32.9219C177.9 32.5482 177.943 32.1312 177.943 31.6709C177.943 31.3337 177.907 30.9896 177.834 30.6387C177.761 30.2878 177.647 29.9824 177.492 29.7227C177.337 29.4583 177.134 29.2441 176.884 29.0801C176.633 28.916 176.332 28.834 175.981 28.834C175.644 28.834 175.357 28.9092 175.12 29.0596C174.883 29.2054 174.678 29.3809 174.505 29.5859V33.5713C174.546 33.6943 174.612 33.8219 174.703 33.9541C174.799 34.0863 174.904 34.2002 175.018 34.2959C175.159 34.4098 175.312 34.5033 175.476 34.5762C175.64 34.6445 175.84 34.6787 176.077 34.6787C176.332 34.6787 176.578 34.6126 176.815 34.4805C177.052 34.3438 177.251 34.1523 177.41 33.9062ZM186.748 34.877C186.534 34.9544 186.345 35.016 186.181 35.0615C186.021 35.1117 185.839 35.1367 185.634 35.1367C185.278 35.1367 184.993 35.0547 184.779 34.8906C184.57 34.722 184.435 34.4782 184.376 34.1592H184.335C184.039 34.4873 183.72 34.738 183.378 34.9111C183.041 35.0843 182.633 35.1709 182.154 35.1709C181.648 35.1709 181.231 35.016 180.903 34.7061C180.58 34.3962 180.418 33.9906 180.418 33.4893C180.418 33.2295 180.454 32.9971 180.527 32.792C180.6 32.5869 180.71 32.4023 180.855 32.2383C180.969 32.1016 181.12 31.9808 181.307 31.876C181.493 31.7666 181.669 31.68 181.833 31.6162C182.038 31.5387 182.453 31.3952 183.077 31.1855C183.706 30.9759 184.13 30.8118 184.349 30.6934V30.0166C184.349 29.9574 184.335 29.8434 184.308 29.6748C184.285 29.5062 184.232 29.3467 184.15 29.1963C184.059 29.0277 183.929 28.8818 183.761 28.7588C183.597 28.6312 183.362 28.5674 183.057 28.5674C182.847 28.5674 182.651 28.6038 182.469 28.6768C182.291 28.7451 182.166 28.818 182.093 28.8955C182.093 28.9867 182.113 29.1211 182.154 29.2988C182.2 29.4766 182.223 29.6406 182.223 29.791C182.223 29.9505 182.15 30.0964 182.004 30.2285C181.863 30.3607 181.664 30.4268 181.409 30.4268C181.181 30.4268 181.013 30.347 180.903 30.1875C180.799 30.0234 180.746 29.8411 180.746 29.6406C180.746 29.431 180.819 29.2305 180.965 29.0391C181.115 28.8477 181.309 28.6768 181.546 28.5264C181.751 28.3988 181.999 28.2917 182.291 28.2051C182.583 28.1139 182.868 28.0684 183.146 28.0684C183.528 28.0684 183.861 28.0957 184.144 28.1504C184.431 28.2005 184.69 28.3122 184.923 28.4854C185.155 28.654 185.331 28.8841 185.449 29.1758C185.572 29.4629 185.634 29.8343 185.634 30.29C185.634 30.9417 185.627 31.5205 185.613 32.0264C185.6 32.5277 185.593 33.0768 185.593 33.6738C185.593 33.8516 185.622 33.9928 185.682 34.0977C185.745 34.2025 185.841 34.2913 185.969 34.3643C186.037 34.4053 186.144 34.4281 186.29 34.4326C186.44 34.4372 186.593 34.4395 186.748 34.4395V34.877ZM184.362 31.2676C183.975 31.3815 183.635 31.4932 183.344 31.6025C183.052 31.7119 182.781 31.8486 182.53 32.0127C182.302 32.1676 182.122 32.3522 181.99 32.5664C181.858 32.776 181.792 33.0267 181.792 33.3184C181.792 33.6966 181.89 33.9746 182.086 34.1523C182.286 34.3301 182.539 34.4189 182.845 34.4189C183.168 34.4189 183.453 34.3415 183.699 34.1865C183.945 34.027 184.153 33.8402 184.321 33.626L184.362 31.2676ZM191.376 30.9258C191.376 32.7852 191.021 34.264 190.31 35.3623C189.603 36.4606 188.628 37.0872 187.384 37.2422V36.6816C188.277 36.5176 188.947 35.9548 189.394 34.9932C189.84 34.027 190.063 32.6758 190.063 30.9395C190.063 29.1165 189.836 27.7266 189.38 26.7695C188.924 25.8125 188.259 25.2542 187.384 25.0947V24.5273C188.628 24.6914 189.603 25.3271 190.31 26.4346C191.021 27.5374 191.376 29.0345 191.376 30.9258Z" fill="#AAAAAA"/>
</svg>
