<svg width="85" height="85" viewBox="0 0 85 85" fill="none" xmlns="http://www.w3.org/2000/svg">
<path d="M81.7902 83.1609L81.4693 82.9814C81.1641 82.7998 80.8726 82.5964 80.597 82.3729C80.1481 82.0011 79.7622 81.5599 79.4539 81.0662C79.26 80.755 79.1082 80.4196 79.0027 80.0688L78.9426 79.7696V78.7821C78.9426 78.7222 78.9426 78.6624 78.9426 78.6125V78.4429C78.9426 78.3332 78.9426 78.2135 79.0228 78.0938C79.0947 77.8577 79.1852 77.6276 79.2935 77.4056L79.464 77.0664L79.6745 76.7373L79.7848 76.5677L79.845 76.4879L79.9653 76.3383L80.1057 76.1787C80.4994 75.7266 81.0036 75.3831 81.5696 75.1812C81.8917 75.0715 82.2356 75.0407 82.5723 75.0915C82.7536 75.122 82.9293 75.1791 83.0937 75.261C83.2611 75.3496 83.4134 75.4641 83.5449 75.6002C83.8129 75.8735 83.9913 76.2213 84.0563 76.5976C84.1176 76.9666 84.0971 77.3445 83.9961 77.7048C83.8959 78.0576 83.7439 78.3937 83.5449 78.7023L83.3945 78.9317L83.224 79.1511L83.0435 79.3606L82.9533 79.4603V79.5102L82.5823 79.8593L82.1612 80.2184C82.0208 80.3381 81.8704 80.4379 81.72 80.5476C81.5696 80.6573 81.4192 80.757 81.2688 80.8568C80.6281 81.2707 79.9579 81.6374 79.2634 81.954C78.9225 82.1236 78.5615 82.2732 78.2106 82.4228C77.8597 82.5724 77.4887 82.7121 77.1076 82.8317C76.3657 83.1011 75.5936 83.3205 74.7914 83.52C73.9893 83.7195 73.1771 83.8791 72.3449 84.0187C71.5127 84.1584 70.6504 84.2282 69.7881 84.288C67.9965 84.3954 66.1984 84.2849 64.4337 83.9589C62.5788 83.626 60.8033 82.9493 59.1997 81.964L58.8989 81.7744L58.3174 81.3555L58.2472 81.2957L58.1168 81.1859C57.7263 80.8486 57.3883 80.4552 57.1142 80.0189C56.6086 79.1654 56.2972 78.2121 56.2017 77.226C56.1479 76.7321 56.1479 76.2338 56.2017 75.7398V75.3807L56.2719 75.0117C56.325 74.7676 56.3953 74.5276 56.4825 74.2935C56.6535 73.8129 56.9156 73.3693 57.2545 72.9868C57.6089 72.5921 58.073 72.311 58.5881 72.1789C58.8536 72.1337 59.1248 72.1337 59.3903 72.1789C59.6597 72.2132 59.921 72.2942 60.1623 72.4183C60.4009 72.5463 60.6175 72.7113 60.804 72.907C60.9826 73.1038 61.1313 73.3256 61.2452 73.5654C61.4686 74.0404 61.5882 74.5571 61.5961 75.0815C61.6009 75.8583 61.4615 76.6292 61.185 77.3557C61.0837 77.5991 60.9665 77.8357 60.8341 78.0639C60.5561 78.5213 60.219 78.9405 59.8314 79.3107C59.0862 80.0486 58.2132 80.6466 57.2545 81.0762C57.0239 81.1959 56.7733 81.2857 56.5426 81.3854C56.312 81.4852 56.0613 81.565 55.8107 81.6348C55.3205 81.7927 54.8217 81.9226 54.3167 82.0238C53.3254 82.2194 52.319 82.3295 51.3086 82.353C49.2579 82.4016 47.2165 82.0631 45.2925 81.3555C44.8413 81.2059 44.36 80.9665 43.8988 80.757L43.237 80.388L43.0766 80.2982L42.9162 80.1885L42.6053 79.969C41.7741 79.3948 41.0877 78.6369 40.6 77.7547C40.5398 77.645 40.4997 77.5253 40.4395 77.4155C40.3856 77.3033 40.3419 77.1865 40.3092 77.0664L40.1989 76.7074C40.1989 76.5877 40.1989 76.458 40.1388 76.3383C40.0679 75.8538 40.0849 75.3606 40.1889 74.882C40.2944 74.4115 40.481 73.9626 40.7404 73.5554C40.9839 73.1348 41.3563 72.8027 41.8032 72.6078C42.0418 72.5359 42.2965 72.5359 42.5352 72.6078C42.7735 72.6655 42.9917 72.7861 43.1668 72.9569C43.5053 73.2979 43.7235 73.7389 43.7885 74.2137C43.8608 74.6753 43.8404 75.1465 43.7283 75.6002C43.6715 75.8248 43.5978 76.0449 43.5078 76.2585C43.4224 76.4683 43.3219 76.6716 43.207 76.8669C42.7492 77.6605 42.1188 78.3421 41.362 78.8619C40.6217 79.369 39.8017 79.75 38.9355 79.989C37.2661 80.4003 35.5308 80.4749 33.8319 80.2084C33.4208 80.1486 33.0197 80.0688 32.6186 79.989C32.4181 79.989 32.2276 79.8992 32.027 79.8493L31.4455 79.6997L31.1547 79.6199H30.874L30.3225 79.4603L29.2296 79.1212C26.7531 78.2027 24.19 77.5344 21.5791 77.1263C21.0334 77.0598 20.4844 77.0232 19.9347 77.0166H19.1325C18.8919 77.0166 18.6512 77.0166 18.4106 77.0764C17.5404 77.159 16.6863 77.3639 15.8738 77.6849C14.7237 78.1777 13.6815 78.8892 12.8056 79.7795C12.4948 80.0987 12.2541 80.3481 12.0937 80.5176L11.8531 80.777C11.7795 80.8486 11.6825 80.8917 11.5797 80.8984C11.477 80.9052 11.3752 80.8751 11.2928 80.8136C11.2104 80.7521 11.1529 80.6633 11.1306 80.5633C11.1083 80.4633 11.1227 80.3586 11.1713 80.2683L11.3617 79.9491C11.5497 79.633 11.7539 79.3267 11.9734 79.0314C12.1238 78.8419 12.2842 78.6225 12.4848 78.3931C12.6853 78.1636 12.6853 78.1636 12.8056 78.0439L13.1766 77.6749C13.7762 77.1075 14.4509 76.6242 15.182 76.2385C16.1286 75.7778 17.1448 75.4746 18.19 75.3408L18.6212 75.291H19.9247C20.2255 75.291 20.5363 75.291 20.8371 75.291H21.3084L21.7796 75.3508C23.1035 75.5292 24.4066 75.8366 25.67 76.2685C26.3318 76.4779 26.9936 76.7273 27.6754 76.9866L29.6808 77.7846L30.6834 78.2035L31.2149 78.413L31.3452 78.4629H31.4756L31.7463 78.5527L32.2777 78.7322C32.4582 78.792 32.6387 78.8619 32.8192 78.9117C33.1902 79.0115 33.5612 79.1212 33.9321 79.211C35.4892 79.6002 37.1094 79.6714 38.6949 79.4204C39.5137 79.2576 40.2997 78.961 41.0211 78.5427C41.7579 78.106 42.3826 77.5051 42.846 76.7871C42.9671 76.6024 43.0744 76.4091 43.1668 76.2086C43.261 76.0127 43.3382 75.8092 43.3975 75.6002C43.5162 75.1787 43.5503 74.7381 43.4977 74.3035C43.4516 73.8657 43.2613 73.4554 42.9563 73.1364C42.8047 72.9826 42.6142 72.8723 42.4048 72.8173C42.1956 72.754 41.9723 72.754 41.7631 72.8173C41.3347 72.9923 40.9804 73.3095 40.7604 73.715C40.4028 74.3023 40.223 74.9798 40.2425 75.6662C40.2621 76.3526 40.4802 77.0189 40.8707 77.5851C41.391 78.3268 42.0775 78.9381 42.8761 79.3706C43.2852 79.5913 43.707 79.7878 44.1394 79.9591C44.5806 80.1087 44.9917 80.2683 45.483 80.388C47.3186 80.8882 49.215 81.1332 51.1181 81.1161C53.0293 81.1386 54.9296 80.828 56.7331 80.1985C57.6184 79.8836 58.4402 79.4141 59.1596 78.812C59.5113 78.5228 59.8217 78.1872 60.0821 77.8145C60.2119 77.6227 60.3291 77.4228 60.433 77.216C60.7254 76.5896 60.889 75.9113 60.9143 75.2211C60.9332 74.7625 60.8475 74.3055 60.6636 73.8845C60.5722 73.6783 60.4506 73.4867 60.3027 73.316C60.1529 73.1518 59.9767 73.0136 59.7813 72.907C59.587 72.8058 59.3768 72.7383 59.1596 72.7075C58.9438 72.6722 58.7237 72.6722 58.5079 72.7075C58.0735 72.8217 57.6827 73.0611 57.3849 73.3958C57.0821 73.7398 56.8504 74.1397 56.7031 74.5728C56.627 74.791 56.5667 75.0143 56.5226 75.2411L56.4624 75.5802V75.9393C56.4129 76.3968 56.4129 76.8583 56.4624 77.3158C56.5846 78.2161 56.9065 79.0781 57.4049 79.8394C57.6406 80.2129 57.9313 80.5491 58.2672 80.8368L58.4076 80.9466L58.4778 80.9964L59.0393 81.3755L59.3301 81.545C60.2154 81.9109 61.1409 82.172 62.0875 82.323C62.9271 82.5851 63.7851 82.7851 64.6543 82.9215C65.5086 83.0454 66.3687 83.1253 67.2312 83.1609C67.6624 83.1609 68.0835 83.1609 68.5046 83.1609C68.9258 83.1609 69.3469 83.1609 69.768 83.1609C71.3892 83.0571 72.9989 82.8202 74.5809 82.4527C75.3429 82.2732 76.0949 82.0637 76.8068 81.8243C77.5087 81.59 78.1981 81.3203 78.8724 81.0164C79.5174 80.729 80.1407 80.3957 80.7374 80.0189C80.8878 79.9291 81.0281 79.8394 81.1685 79.7396C81.3089 79.6399 81.4493 79.5501 81.5696 79.4504L81.9506 79.1511L82.3316 78.812L82.4118 78.7322L82.5622 78.5626L82.7026 78.3931L82.833 78.2135C82.9968 77.9809 83.1252 77.7254 83.214 77.4554C83.3024 77.2282 83.3304 76.9822 83.2953 76.741C83.2601 76.4999 83.1631 76.2719 83.0135 76.0789C82.8542 75.9166 82.6515 75.8031 82.4293 75.7519C82.2072 75.7006 81.975 75.7137 81.7601 75.7897C81.2934 75.9383 80.8725 76.2026 80.5368 76.5577L80.4065 76.6874L80.2761 76.837L80.216 76.9068L80.1057 77.0465L79.8951 77.3357L79.7247 77.635C79.6154 77.8268 79.5216 78.0269 79.4439 78.2335C79.4439 78.3332 79.3838 78.433 79.3537 78.5327V78.6823C79.3537 78.7322 79.3537 78.7821 79.3537 78.8319V79.1312C79.3537 79.2309 79.3537 79.3273 79.3537 79.4204V79.979C79.4267 80.3252 79.5447 80.6605 79.7046 80.9765C79.9683 81.4703 80.3064 81.9211 80.7073 82.3131C80.9578 82.5582 81.2259 82.7849 81.5094 82.9913L81.7902 83.1609Z" fill="#C09068"/>
<path d="M1.26379 2.61642L1.44426 2.93561C1.6268 3.2392 1.83121 3.52922 2.0559 3.8034C2.4297 4.24996 2.8732 4.63387 3.36942 4.94049C3.68227 5.13347 4.01943 5.28441 4.3721 5.38936L4.6729 5.4492H5.66556C5.72572 5.4492 5.78588 5.4492 5.83602 5.4492H6.00647C6.11677 5.4492 6.23709 5.44922 6.35741 5.36942C6.59478 5.29786 6.82611 5.20779 7.04926 5.10009L7.39017 4.93053L7.72106 4.72105L7.89151 4.61134L7.97173 4.55149L8.12213 4.4318L8.28256 4.29215C8.73701 3.90047 9.08234 3.39893 9.28525 2.83586C9.39557 2.51544 9.42652 2.17327 9.37548 1.8384C9.34482 1.65806 9.28737 1.48327 9.20503 1.31973C9.11595 1.15313 9.00088 1.00162 8.86411 0.870866C8.58939 0.604194 8.23973 0.42679 7.86143 0.362152C7.49049 0.30109 7.11061 0.321515 6.74845 0.421997C6.39382 0.521658 6.05594 0.672923 5.74577 0.870866L5.51516 1.02048L5.29457 1.19006L5.084 1.3696L4.98374 1.45936H4.9336L4.58266 1.82842L4.2217 2.24737C4.10137 2.38701 4.0011 2.53663 3.89081 2.68625C3.78051 2.83587 3.68025 2.98547 3.57998 3.13509C3.16392 3.77241 2.79528 4.43917 2.47703 5.13001C2.30657 5.46914 2.15617 5.82825 2.00577 6.17736C1.85537 6.52647 1.71499 6.89554 1.59467 7.27457C1.32394 8.01269 1.10336 8.78074 0.902819 9.5787C0.702283 10.3767 0.541854 11.1846 0.401478 12.0125C0.261103 12.8404 0.190911 13.6982 0.13075 14.556C0.0228058 16.3383 0.133924 18.127 0.461637 19.8825C0.796223 21.7277 1.47649 23.4939 2.467 25.0892L2.65751 25.3884L3.07864 25.967L3.1388 26.0368L3.24909 26.1664C3.58824 26.555 3.98361 26.8912 4.42223 27.1639C5.28021 27.6668 6.2385 27.9766 7.22974 28.0716C7.72629 28.1251 8.22719 28.1251 8.72374 28.0716H9.08471L9.4557 28.0018C9.70101 27.949 9.94226 27.879 10.1776 27.7923C10.6608 27.6221 11.1067 27.3614 11.4911 27.0243C11.8879 26.6718 12.1706 26.2101 12.3033 25.6976C12.3488 25.4336 12.3488 25.1637 12.3033 24.8997C12.2688 24.6316 12.1874 24.3717 12.0627 24.1316C11.934 23.8943 11.7681 23.6788 11.5714 23.4932C11.3735 23.3156 11.1506 23.1677 10.9096 23.0544C10.4321 22.8322 9.91263 22.7132 9.38551 22.7053C8.60467 22.7005 7.82966 22.8392 7.0994 23.1142C6.85471 23.2151 6.6169 23.3317 6.38749 23.4633C5.92767 23.7399 5.5063 24.0752 5.13413 24.4608C4.39242 25.2022 3.79121 26.0706 3.35939 27.0243C3.23907 27.2537 3.14883 27.503 3.04856 27.7325C2.94829 27.9619 2.86808 28.2112 2.79789 28.4606C2.63915 28.9482 2.50859 29.4444 2.40684 29.9468C2.21023 30.9329 2.09952 31.9341 2.07596 32.9392C2.02708 34.9792 2.36731 37.01 3.07864 38.924C3.22904 39.3728 3.46968 39.8516 3.68025 40.3104L4.05124 40.9687L4.14148 41.1283L4.25178 41.2879L4.47237 41.5971C5.04966 42.4241 5.81153 43.1069 6.69832 43.5921C6.80862 43.6519 6.92894 43.6918 7.03923 43.7517C7.15203 43.8054 7.26949 43.8488 7.39017 43.8813L7.75114 43.991C7.87146 43.991 8.00181 43.991 8.12213 44.0509C8.60918 44.1214 9.10498 44.1045 9.58605 44.001C10.0591 43.896 10.5102 43.7104 10.9196 43.4524C11.3424 43.2101 11.6762 42.8396 11.8722 42.3951C11.9444 42.1577 11.9444 41.9044 11.8722 41.667C11.8141 41.4299 11.6929 41.2128 11.5212 41.0386C11.1785 40.7019 10.7351 40.4849 10.2578 40.4201C9.79386 40.3482 9.32014 40.3685 8.86411 40.48C8.6383 40.5365 8.41709 40.6099 8.20235 40.6994C7.99148 40.7844 7.78706 40.8844 7.59071 40.9987C6.79304 41.454 6.10786 42.0811 5.58535 42.834C5.07552 43.5704 4.69259 44.3862 4.45231 45.2479C4.03889 46.9086 3.96389 48.6349 4.23173 50.3249C4.29189 50.7339 4.3721 51.1329 4.45231 51.5318C4.45231 51.7313 4.54256 51.9209 4.59269 52.1203L4.74309 52.6989L4.82331 52.9881V53.2674L4.98374 53.816L5.32465 54.9033C6.24791 57.3668 6.91975 59.9165 7.33001 62.5139C7.3968 63.0567 7.43362 63.6028 7.44031 64.1497V64.9477C7.44031 65.1871 7.44031 65.4265 7.38015 65.6659C7.2971 66.5316 7.09118 67.3812 6.76851 68.1894C6.27311 69.3335 5.55785 70.3703 4.66288 71.2417C4.34202 71.5509 4.09135 71.7903 3.92089 71.9498L3.6602 72.1892C3.58816 72.2625 3.54485 72.3589 3.5381 72.4611C3.53135 72.5634 3.56161 72.6646 3.6234 72.7466C3.68519 72.8286 3.77444 72.8858 3.87498 72.908C3.97553 72.9302 4.08073 72.9158 4.17156 72.8675L4.49242 72.678C4.81015 72.491 5.11805 72.2879 5.41489 72.0695C5.6054 71.9199 5.82599 71.7603 6.05661 71.5608C6.28723 71.3613 6.28722 71.3614 6.40755 71.2417L6.77854 70.8726C7.34892 70.2761 7.8347 69.605 8.2224 68.8777C8.68551 67.9359 8.99035 66.9251 9.12481 65.8853L9.17495 65.4564V64.1597C9.17495 63.8604 9.17495 63.5512 9.17495 63.252V62.7832L9.11479 62.3144C8.93546 60.9974 8.62649 59.7011 8.19232 58.4442C7.98176 57.7859 7.73108 57.1276 7.47039 56.4493L6.66825 54.4544L6.24711 53.4569L6.03655 52.9283L5.98642 52.7986V52.6689L5.89618 52.3996L5.71569 51.871C5.65553 51.6914 5.58534 51.5119 5.53521 51.3323C5.43494 50.9633 5.32465 50.5942 5.23441 50.2252C4.84317 48.6762 4.77155 47.0645 5.02385 45.4872C5.18749 44.6727 5.48564 43.8907 5.9062 43.1731C6.34512 42.4402 6.94925 41.8187 7.67093 41.3578C7.85661 41.2373 8.05099 41.1306 8.25248 41.0386C8.44941 40.9449 8.65404 40.8681 8.86411 40.8092C9.2878 40.691 9.73074 40.6572 10.1676 40.7094C10.6077 40.7553 11.0201 40.9447 11.3407 41.248C11.4954 41.3988 11.6062 41.5884 11.6616 41.7966C11.7252 42.0047 11.7252 42.2269 11.6616 42.435C11.4856 42.8612 11.1667 43.2136 10.7592 43.4325C10.1688 43.7882 9.48775 43.9671 8.79774 43.9477C8.10773 43.9282 7.43799 43.7112 6.86878 43.3228C6.12318 42.8051 5.50874 42.1222 5.07398 41.3278C4.8521 40.9208 4.65457 40.5012 4.4824 40.071C4.33199 39.6322 4.17156 39.2232 4.05124 38.7344C3.54843 36.9084 3.30211 35.0219 3.31928 33.1287C3.29669 31.2275 3.6089 29.337 4.24175 27.5429C4.55825 26.6622 5.03023 25.8448 5.63548 25.1291C5.92617 24.7792 6.26351 24.4705 6.63816 24.2114C6.83094 24.0823 7.0319 23.9657 7.23977 23.8623C7.86952 23.5715 8.55131 23.4087 9.24514 23.3835C9.70618 23.3648 10.1655 23.45 10.5887 23.6329C10.796 23.7239 10.9886 23.8449 11.1603 23.992C11.3253 24.1409 11.4643 24.3162 11.5714 24.5107C11.6731 24.7039 11.7409 24.9131 11.7719 25.1291C11.8074 25.3438 11.8074 25.5628 11.7719 25.7774C11.6572 26.2096 11.4164 26.5983 11.08 26.8946C10.7343 27.1958 10.3322 27.4263 9.89688 27.5729C9.67752 27.6485 9.45302 27.7085 9.22508 27.7524L8.88417 27.8123H8.52321C8.0633 27.8615 7.59941 27.8615 7.1395 27.8123C6.23446 27.6908 5.36794 27.3705 4.60271 26.8747C4.22724 26.6402 3.88925 26.3511 3.60003 26.0168L3.48973 25.8772L3.43961 25.8074L3.05858 25.2488L2.88813 24.9595C2.52037 24.0788 2.25787 23.1581 2.10604 22.2165C1.8426 21.3812 1.64152 20.5277 1.50443 19.663C1.37989 18.8132 1.29957 17.9576 1.26379 17.0995C1.26379 16.6706 1.26379 16.2517 1.26379 15.8328C1.26379 15.4138 1.26379 14.9949 1.26379 14.576C1.36816 12.9632 1.60627 11.3619 1.97569 9.78816C2.15617 9.03009 2.36673 8.28199 2.60738 7.5738C2.84295 6.87563 3.11402 6.18983 3.41955 5.51903C3.70841 4.87739 4.04351 4.25733 4.42223 3.66374C4.51247 3.51412 4.60271 3.37449 4.70298 3.23484C4.80325 3.0952 4.89349 2.95556 4.99376 2.83586L5.29457 2.45682L5.63547 2.07778L5.71569 1.998L5.88615 1.84839L6.05661 1.70873L6.23709 1.57905C6.47094 1.41605 6.72773 1.28832 6.99912 1.20001C7.22754 1.11207 7.47489 1.08422 7.71729 1.11917C7.95968 1.15411 8.18892 1.25068 8.38283 1.39952C8.54599 1.55798 8.6601 1.75962 8.71163 1.98059C8.76316 2.20156 8.74997 2.4326 8.67361 2.64634C8.5242 3.11057 8.25851 3.52934 7.90154 3.86324L7.77119 3.99292L7.62079 4.12259L7.5506 4.18244L7.41023 4.29215L7.11945 4.50163L6.81864 4.67119C6.62579 4.77985 6.42463 4.87323 6.21703 4.95047C6.11677 4.95047 6.0165 5.01032 5.91623 5.04024H5.76583C5.71569 5.04024 5.66556 5.04024 5.61543 5.04024H5.31462C5.21435 5.04024 5.11743 5.04024 5.02385 5.04024H4.46234C4.11431 4.96761 3.77725 4.85025 3.45966 4.69112C2.96322 4.42883 2.51011 4.09244 2.11606 3.69366C1.86962 3.44449 1.64175 3.17781 1.43424 2.89571L1.26379 2.61642Z" fill="#C09068"/>
</svg>
