<svg width="84" height="84" viewBox="0 0 84 84" fill="none" xmlns="http://www.w3.org/2000/svg">
<path d="M81.6994 1.16685L81.3785 1.34639C81.0733 1.52797 80.7818 1.73132 80.5062 1.95484C80.0573 2.3267 79.6713 2.76788 79.3631 3.26151C79.1691 3.57274 79.0174 3.90814 78.9119 4.25897L78.8517 4.55821V5.5457C78.8517 5.60555 78.8517 5.66539 78.8517 5.71526V5.88483C78.8517 5.99455 78.8517 6.11424 78.9319 6.23394C79.0039 6.47007 79.0944 6.7002 79.2027 6.92219L79.3731 7.26132L79.5837 7.59049L79.694 7.76005L79.7542 7.83985L79.8745 7.98947L80.0149 8.14907C80.4086 8.60115 80.9128 8.94468 81.4788 9.14653C81.8009 9.25628 82.1448 9.28707 82.4815 9.2363C82.6627 9.20579 82.8384 9.14865 83.0028 9.06673C83.1703 8.97811 83.3226 8.86364 83.4541 8.72759C83.7221 8.45429 83.9005 8.10646 83.9654 7.73013C84.0268 7.36112 84.0063 6.98322 83.9053 6.62295C83.8051 6.27016 83.653 5.93405 83.4541 5.62549L83.3037 5.39608L83.1332 5.17664L82.9527 4.96717L82.8625 4.86743V4.81755L82.4915 4.46844L82.0703 4.10935C81.93 3.98966 81.7796 3.88991 81.6292 3.78019C81.4788 3.67047 81.3284 3.57073 81.178 3.47098C80.5373 3.05708 79.8671 2.69037 79.1726 2.37378C78.8317 2.20421 78.4707 2.05459 78.1198 1.90497C77.7688 1.75535 77.3978 1.6157 77.0168 1.49601C76.2748 1.22669 75.5028 1.00726 74.7006 0.807765C73.8985 0.608273 73.0863 0.448679 72.2541 0.309035C71.4218 0.16939 70.5596 0.0995638 69.6972 0.0397163C67.9057 -0.0676653 66.1076 0.0428743 64.3429 0.36888C62.488 0.701724 60.7125 1.37845 59.1089 2.3638L58.8081 2.55332L58.2266 2.97225L58.1564 3.0321L58.026 3.14182C57.6354 3.47919 57.2975 3.87251 57.0233 4.30884C56.5178 5.16235 56.2064 6.11566 56.1109 7.10173C56.0571 7.59569 56.0571 8.09398 56.1109 8.58795V8.94703L56.1811 9.31609C56.2341 9.56013 56.3045 9.80012 56.3916 10.0343C56.5627 10.5149 56.8248 10.9585 57.1637 11.3409C57.518 11.7356 57.9822 12.0168 58.4973 12.1489C58.7627 12.1941 59.034 12.1941 59.2994 12.1489C59.5689 12.1145 59.8302 12.0335 60.0715 11.9095C60.3101 11.7814 60.5267 11.6165 60.7132 11.4207C60.8918 11.2239 61.0405 11.0021 61.1544 10.7624C61.3778 10.2874 61.4974 9.77064 61.5053 9.24627C61.5101 8.4695 61.3707 7.69852 61.0942 6.97207C60.9929 6.72866 60.8756 6.49208 60.7433 6.26386C60.4653 5.80644 60.1282 5.38726 59.7406 5.01704C58.9953 4.27919 58.1224 3.68111 57.1637 3.25154C56.9331 3.13184 56.6824 3.04207 56.4518 2.94233C56.2212 2.84258 55.9705 2.76278 55.7198 2.69296C55.2297 2.53505 54.7309 2.40517 54.2259 2.30395C53.2346 2.10836 52.2281 1.99823 51.2178 1.97479C49.1671 1.92617 47.1257 2.26463 45.2017 2.97225C44.7505 3.12187 44.2692 3.36126 43.808 3.57072L43.1462 3.93979L42.9858 4.02956L42.8254 4.13928L42.5145 4.35872C41.6833 4.933 40.9969 5.69091 40.5092 6.57308C40.449 6.6828 40.4089 6.80249 40.3487 6.91221C40.2947 7.02442 40.2511 7.14127 40.2184 7.26132L40.1081 7.62041C40.1081 7.7401 40.1081 7.86978 40.0479 7.98947C39.9771 8.47399 39.9941 8.9672 40.0981 9.44576C40.2036 9.9163 40.3902 10.3651 40.6495 10.7724C40.8931 11.193 41.2655 11.525 41.7124 11.72C41.951 11.7918 42.2057 11.7918 42.4443 11.72C42.6826 11.6622 42.9008 11.5416 43.076 11.3709C43.4145 11.0299 43.6326 10.5889 43.6977 10.1141C43.77 9.65249 43.7496 9.18124 43.6375 8.72759C43.5807 8.50296 43.507 8.2829 43.4169 8.06927C43.3316 7.8595 43.231 7.65615 43.1161 7.46082C42.6584 6.6673 42.028 5.98569 41.2712 5.4659C40.5309 4.95873 39.7108 4.5778 38.8447 4.33877C37.1753 3.9275 35.4399 3.85289 33.7411 4.11933C33.33 4.17918 32.9289 4.25897 32.5278 4.33877C32.3273 4.33877 32.1368 4.42854 31.9362 4.47842L31.3547 4.62803L31.0639 4.70783H30.7831L30.2317 4.86743L29.1387 5.20656C26.6623 6.12501 24.0992 6.79335 21.4883 7.20148C20.9426 7.26792 20.3936 7.30455 19.8439 7.3112H19.0417C18.8011 7.3112 18.5604 7.3112 18.3198 7.25135C17.4495 7.16874 16.5955 6.96389 15.783 6.6429C14.6329 6.15009 13.5907 5.43854 12.7148 4.54824C12.404 4.22905 12.1633 3.97968 12.0029 3.81011L11.7622 3.55078C11.6886 3.47912 11.5917 3.43603 11.4889 3.42932C11.3862 3.4226 11.2844 3.4527 11.202 3.51417C11.1196 3.57565 11.062 3.66442 11.0397 3.76445C11.0175 3.86447 11.0319 3.96912 11.0804 4.05948L11.2709 4.37866C11.4589 4.69474 11.6631 5.00104 11.8826 5.29633C12.033 5.48585 12.1934 5.70529 12.3939 5.93471C12.5945 6.16412 12.5945 6.16412 12.7148 6.28382L13.0858 6.65288C13.6854 7.22029 14.3601 7.70353 15.0912 8.08922C16.0378 8.54991 17.054 8.85317 18.0992 8.98693L18.5304 9.03681H19.8338C20.1347 9.03681 20.4455 9.03681 20.7463 9.03681H21.2175L21.6888 8.97695C23.0127 8.79856 24.3158 8.4912 25.5792 8.05929C26.241 7.84983 26.9028 7.60046 27.5846 7.34112L29.5899 6.54316L30.5926 6.12422L31.124 5.91475L31.2544 5.86488H31.3848L31.6555 5.77511L32.1869 5.59557C32.3674 5.53572 32.5479 5.4659 32.7283 5.41602C33.0993 5.31628 33.4703 5.20656 33.8413 5.11679C35.3984 4.72759 37.0186 4.65634 38.6041 4.90732C39.4229 5.07011 40.2089 5.36671 40.9303 5.78509C41.6671 6.22171 42.2918 6.8227 42.7552 7.54062C42.8763 7.72534 42.9835 7.9187 43.076 8.11914C43.1702 8.31505 43.2473 8.51861 43.3066 8.72759C43.4254 9.14907 43.4594 9.5897 43.4069 10.0243C43.3608 10.4621 43.1704 10.8724 42.8655 11.1913C42.7139 11.3451 42.5233 11.4554 42.314 11.5105C42.1048 11.5738 41.8815 11.5738 41.6723 11.5105C41.2439 11.3354 40.8896 11.0182 40.6696 10.6128C40.312 10.0254 40.1321 9.34797 40.1517 8.66156C40.1713 7.97514 40.3894 7.30889 40.7799 6.74265C41.3002 6.00093 41.9867 5.38969 42.7853 4.95719C43.1944 4.73648 43.6162 4.53997 44.0486 4.3687C44.4898 4.21908 44.9009 4.05948 45.3922 3.93979C47.2278 3.4396 49.1242 3.19455 51.0273 3.21164C52.9385 3.18917 54.8388 3.49974 56.6423 4.1293C57.5276 4.44416 58.3493 4.91368 59.0688 5.51577C59.4205 5.80495 59.7309 6.14053 59.9913 6.51323C60.1211 6.70501 60.2383 6.90492 60.3422 7.11171C60.6346 7.73817 60.7982 8.41641 60.8235 9.10663C60.8424 9.56527 60.7567 10.0222 60.5728 10.4432C60.4814 10.6494 60.3597 10.841 60.2119 11.0118C60.0621 11.176 59.8859 11.3142 59.6905 11.4207C59.4962 11.522 59.2859 11.5894 59.0688 11.6202C58.853 11.6556 58.6329 11.6556 58.4171 11.6202C57.9826 11.5061 57.5919 11.2666 57.2941 10.932C56.9913 10.588 56.7596 10.188 56.6122 9.75497C56.5362 9.53676 56.4759 9.31343 56.4318 9.08668L56.3716 8.74754V8.38846C56.3221 7.93095 56.3221 7.46947 56.3716 7.01196C56.4937 6.11164 56.8157 5.24962 57.3141 4.48839C57.5498 4.11487 57.8404 3.77864 58.1764 3.49093L58.3168 3.3812L58.387 3.33134L58.9485 2.9523L59.2393 2.78273C60.1246 2.41689 61.0501 2.15576 61.9966 2.00471C62.8363 1.74265 63.6943 1.54261 64.5635 1.40624C65.4178 1.28235 66.2779 1.20245 67.1404 1.16685C67.5716 1.16685 67.9927 1.16685 68.4138 1.16685C68.8349 1.16685 69.2561 1.16685 69.6772 1.16685C71.2984 1.27068 72.9081 1.50755 74.4901 1.87505C75.2521 2.05459 76.0041 2.26405 76.716 2.50344C77.4178 2.73779 78.1072 3.00745 78.7815 3.31138C79.4266 3.59874 80.0499 3.9321 80.6466 4.30884C80.797 4.39861 80.9373 4.48838 81.0777 4.58813C81.2181 4.68788 81.3584 4.77765 81.4788 4.87739L81.8598 5.17664L82.2408 5.51577L82.321 5.59557L82.4714 5.76513L82.6118 5.93471L82.7422 6.11425C82.906 6.34688 83.0344 6.60233 83.1232 6.87231C83.2116 7.09954 83.2396 7.3456 83.2045 7.58673C83.1693 7.82786 83.0722 8.05591 82.9226 8.24881C82.7633 8.41113 82.5606 8.52463 82.3385 8.5759C82.1164 8.62716 81.8841 8.61404 81.6693 8.53808C81.2026 8.38945 80.7817 8.12514 80.446 7.77003L80.3157 7.64036L80.1853 7.49074L80.1251 7.42092L80.0149 7.28128L79.8043 6.99201L79.6338 6.69277C79.5246 6.50092 79.4307 6.30081 79.3531 6.0943C79.3531 5.99455 79.2929 5.89481 79.2628 5.79506V5.64544C79.2628 5.59557 79.2628 5.5457 79.2628 5.49582V5.19658C79.2628 5.09684 79.2628 5.00042 79.2628 4.90732V4.34874C79.3359 4.00253 79.4538 3.66723 79.6138 3.35128C79.8775 2.85744 80.2156 2.40668 80.6165 2.01469C80.867 1.76953 81.135 1.54284 81.4186 1.33642L81.6994 1.16685Z" fill="#C09068"/>
<path d="M1.17297 81.7113L1.35344 81.3921C1.53598 81.0886 1.74039 80.7985 1.96508 80.5244C2.33888 80.0778 2.78238 79.6939 3.2786 79.3873C3.59145 79.1943 3.92861 79.0434 4.28128 78.9384L4.58208 78.8786H5.57474C5.6349 78.8786 5.69506 78.8786 5.7452 78.8786H5.91565C6.02595 78.8786 6.14627 78.8785 6.26659 78.9583C6.50396 79.0299 6.73529 79.12 6.95844 79.2277L7.29935 79.3972L7.63024 79.6067L7.80069 79.7164L7.88091 79.7763L8.03131 79.896L8.19174 80.0356C8.64619 80.4273 8.99152 80.9288 9.19443 81.4919C9.30475 81.8123 9.3357 82.1545 9.28466 82.4894C9.254 82.6697 9.19655 82.8445 9.11421 83.008C9.02513 83.1746 8.91006 83.3261 8.77329 83.4569C8.49857 83.7236 8.14891 83.901 7.77061 83.9656C7.39967 84.0267 7.01979 84.0062 6.65763 83.9058C6.303 83.8061 5.96512 83.6548 5.65495 83.4569L5.42434 83.3073L5.20375 83.1377L4.99318 82.9582L4.89292 82.8684H4.84278L4.49184 82.4993L4.13088 82.0804C4.01055 81.9407 3.91028 81.7911 3.79999 81.6415C3.68969 81.4919 3.58943 81.3423 3.48916 81.1927C3.0731 80.5553 2.70446 79.8886 2.38621 79.1978C2.21575 78.8586 2.06535 78.4995 1.91495 78.1504C1.76455 77.8013 1.62417 77.4322 1.50384 77.0532C1.23312 76.3151 1.01254 75.547 0.811999 74.7491C0.611463 73.9511 0.451033 73.1431 0.310658 72.3153C0.170282 71.4874 0.10009 70.6296 0.0399293 69.7717C-0.0680145 67.9895 0.0431039 66.2008 0.370816 64.4453C0.705403 62.6001 1.38567 60.8338 2.37618 59.2386L2.56669 58.9393L2.98782 58.3608L3.04798 58.291L3.15827 58.1613C3.49742 57.7728 3.89279 57.4366 4.33141 57.1638C5.18939 56.661 6.14768 56.3511 7.13892 56.2562C7.63547 56.2027 8.13637 56.2027 8.63292 56.2562H8.99389L9.36488 56.326C9.61019 56.3788 9.85144 56.4488 10.0868 56.5354C10.57 56.7056 11.0158 56.9663 11.4003 57.3035C11.7971 57.656 12.0797 58.1177 12.2125 58.6301C12.2579 58.8942 12.2579 59.164 12.2125 59.4281C12.178 59.6961 12.0965 59.956 11.9719 60.1961C11.8431 60.4335 11.6773 60.649 11.4805 60.8345C11.2827 61.0122 11.0597 61.16 10.8188 61.2734C10.3412 61.4956 9.82181 61.6146 9.29469 61.6225C8.51385 61.6272 7.73884 61.4886 7.00858 61.2135C6.76389 61.1127 6.52608 60.9961 6.29667 60.8644C5.83685 60.5879 5.41547 60.2525 5.04331 59.867C4.3016 59.1256 3.70039 58.2572 3.26857 57.3035C3.14825 57.0741 3.05801 56.8247 2.95774 56.5953C2.85747 56.3659 2.77726 56.1165 2.70707 55.8671C2.54833 55.3796 2.41777 54.8834 2.31602 54.3809C2.11941 53.3948 2.0087 52.3936 1.98514 51.3886C1.93626 49.3485 2.27649 47.3178 2.98782 45.4038C3.13822 44.9549 3.37886 44.4762 3.58943 44.0173L3.96042 43.359L4.05066 43.1994L4.16096 43.0398L4.38155 42.7306C4.95884 41.9037 5.72071 41.2209 6.6075 40.7357C6.7178 40.6758 6.83812 40.6359 6.94841 40.5761C7.06121 40.5224 7.17867 40.479 7.29935 40.4464L7.66032 40.3367C7.78064 40.3367 7.91099 40.3367 8.03131 40.2769C8.51836 40.2064 9.01416 40.2233 9.49523 40.3267C9.96823 40.4317 10.4194 40.6173 10.8288 40.8753C11.2516 41.1176 11.5854 41.4881 11.7813 41.9326C11.8536 42.17 11.8536 42.4234 11.7813 42.6608C11.7233 42.8978 11.6021 43.1149 11.4304 43.2892C11.0876 43.6259 10.6443 43.8429 10.167 43.9076C9.70304 43.9796 9.22932 43.9592 8.77329 43.8478C8.54748 43.7912 8.32627 43.7179 8.11153 43.6283C7.90066 43.5434 7.69624 43.4434 7.49989 43.3291C6.70222 42.8737 6.01704 42.2466 5.49453 41.4938C4.9847 40.7573 4.60177 39.9415 4.36149 39.0799C3.94807 37.4192 3.87307 35.6929 4.14091 34.0028C4.20107 33.5939 4.28128 33.1949 4.36149 32.7959C4.36149 32.5964 4.45174 32.4069 4.50187 32.2074L4.65227 31.6289L4.73249 31.3396V31.0603L4.89292 30.5117L5.23383 29.4245C6.15709 26.9609 6.82893 24.4112 7.23919 21.8139C7.30598 21.271 7.3428 20.7249 7.34949 20.178V19.3801C7.34949 19.1407 7.34949 18.9013 7.28933 18.6619C7.20628 17.7962 7.00036 16.9466 6.67769 16.1383C6.18229 14.9942 5.46703 13.9574 4.57206 13.0861C4.2512 12.7769 4.00052 12.5375 3.83007 12.3779L3.56938 12.1385C3.49734 12.0653 3.45403 11.9688 3.44728 11.8666C3.44053 11.7644 3.47079 11.6631 3.53258 11.5812C3.59437 11.4992 3.68362 11.442 3.78416 11.4198C3.88471 11.3976 3.98991 11.412 4.08074 11.4603L4.4016 11.6498C4.71933 11.8368 5.02723 12.0399 5.32407 12.2582C5.51458 12.4078 5.73517 12.5674 5.96579 12.7669C6.1964 12.9664 6.1964 12.9664 6.31673 13.0861L6.68772 13.4552C7.2581 14.0516 7.74388 14.7228 8.13158 15.4501C8.59469 16.3918 8.89953 17.4027 9.03399 18.4425L9.08413 18.8714V20.1681C9.08413 20.4673 9.08413 20.7765 9.08413 21.0758V21.5446L9.02397 22.0134C8.84464 23.3304 8.53567 24.6266 8.1015 25.8835C7.89094 26.5418 7.64026 27.2002 7.37957 27.8784L6.57742 29.8734L6.15629 30.8708L5.94573 31.3995L5.8956 31.5291V31.6588L5.80536 31.9281L5.62487 32.4568C5.56471 32.6363 5.49452 32.8159 5.44439 32.9954C5.34412 33.3645 5.23383 33.7335 5.14359 34.1026C4.75235 35.6515 4.68073 37.2633 4.93303 38.8405C5.09667 39.6551 5.39482 40.437 5.81538 41.1546C6.2543 41.8876 6.85843 42.5091 7.58011 42.97C7.76579 43.0905 7.96017 43.1972 8.16166 43.2892C8.35859 43.3829 8.56322 43.4596 8.77329 43.5186C9.19698 43.6367 9.63992 43.6706 10.0768 43.6183C10.5169 43.5725 10.9293 43.3831 11.2499 43.0797C11.4046 42.9289 11.5154 42.7394 11.5708 42.5311C11.6344 42.323 11.6344 42.1008 11.5708 41.8927C11.3948 41.4666 11.0759 41.1141 10.6684 40.8953C10.0779 40.5395 9.39693 40.3606 8.70692 40.3801C8.01691 40.3996 7.34717 40.6165 6.77796 41.005C6.03236 41.5226 5.41792 42.2056 4.98316 42.9999C4.76128 43.4069 4.56375 43.8266 4.39158 44.2567C4.24117 44.6956 4.08074 45.1046 3.96042 45.5933C3.45761 47.4193 3.21129 49.3058 3.22846 51.199C3.20587 53.1003 3.51808 54.9907 4.15093 56.7848C4.46743 57.6655 4.93941 58.4829 5.54466 59.1987C5.83535 59.5485 6.17269 59.8573 6.54734 60.1163C6.74012 60.2455 6.94108 60.3621 7.14895 60.4654C7.7787 60.7563 8.46049 60.919 9.15432 60.9442C9.61536 60.963 10.0747 60.8777 10.4979 60.6949C10.7052 60.6039 10.8978 60.4829 11.0694 60.3358C11.2345 60.1868 11.3734 60.0115 11.4805 59.8171C11.5823 59.6238 11.6501 59.4147 11.6811 59.1987C11.7166 58.984 11.7166 58.765 11.6811 58.5503C11.5664 58.1182 11.3256 57.7295 10.9892 57.4332C10.6434 57.132 10.2414 56.9015 9.80606 56.7549C9.5867 56.6792 9.3622 56.6192 9.13426 56.5754L8.79335 56.5155H8.43239C7.97248 56.4663 7.50859 56.4663 7.04868 56.5155C6.14364 56.637 5.27712 56.9573 4.51189 57.4531C4.13642 57.6875 3.79843 57.9767 3.50921 58.3109L3.39891 58.4506L3.34878 58.5204L2.96776 59.079L2.79731 59.3682C2.42955 60.249 2.16705 61.1696 2.01522 62.1113C1.75178 62.9465 1.5507 63.8 1.41361 64.6648C1.28907 65.5145 1.20875 66.3702 1.17297 67.2282C1.17297 67.6571 1.17297 68.0761 1.17297 68.495C1.17297 68.9139 1.17297 69.3329 1.17297 69.7518C1.27734 71.3645 1.51545 72.9659 1.88487 74.5396C2.06535 75.2977 2.27591 76.0458 2.51656 76.754C2.75213 77.4521 3.0232 78.1379 3.32873 78.8087C3.61759 79.4504 3.95269 80.0704 4.33141 80.664C4.42165 80.8136 4.51189 80.9533 4.61216 81.0929C4.71243 81.2326 4.80267 81.3722 4.90294 81.4919L5.20375 81.8709L5.54465 82.25L5.62487 82.3298L5.79533 82.4794L5.96579 82.619L6.14627 82.7487C6.38012 82.9117 6.63691 83.0394 6.9083 83.1277C7.13672 83.2157 7.38407 83.2435 7.62646 83.2086C7.86886 83.1736 8.09809 83.0771 8.29201 82.9282C8.45517 82.7698 8.56928 82.5681 8.62081 82.3472C8.67234 82.1262 8.65915 81.8952 8.58279 81.6814C8.43338 81.2172 8.16769 80.7984 7.81072 80.4645L7.68037 80.3348L7.52997 80.2052L7.45978 80.1453L7.31941 80.0356L7.02863 79.8261L6.72782 79.6566C6.53497 79.5479 6.33381 79.4545 6.12621 79.3773C6.02594 79.3773 5.92568 79.3174 5.82541 79.2875H5.67501C5.62487 79.2875 5.57474 79.2875 5.5246 79.2875H5.2238C5.12353 79.2875 5.02661 79.2875 4.93303 79.2875H4.37152C4.02349 79.3602 3.68643 79.4775 3.36883 79.6366C2.8724 79.8989 2.41929 80.2353 2.02524 80.6341C1.7788 80.8833 1.55093 81.15 1.34342 81.4321L1.17297 81.7113Z" fill="#C09068"/>
</svg>
