<svg width="84" height="84" viewBox="0 0 84 84" fill="none" xmlns="http://www.w3.org/2000/svg">
<path d="M2.30064 82.8331L2.62151 82.6536C2.92668 82.472 3.21822 82.2687 3.49384 82.0452C3.94273 81.6733 4.32865 81.2321 4.63688 80.7385C4.83087 80.4273 4.9826 80.0919 5.0881 79.741L5.14826 79.4418V78.4543C5.14826 78.3945 5.14826 78.3346 5.14826 78.2847V78.1152C5.14826 78.0054 5.14827 77.8858 5.06805 77.7661C4.99612 77.5299 4.90558 77.2998 4.79731 77.0778L4.62687 76.7387L4.41629 76.4095L4.30601 76.2399L4.24585 76.1601L4.12553 76.0105L3.98514 75.8509C3.59142 75.3989 3.08724 75.0553 2.52123 74.8535C2.19913 74.7437 1.85517 74.7129 1.51855 74.7637C1.33726 74.7942 1.16156 74.8514 0.997166 74.9333C0.829693 75.0219 0.677388 75.1364 0.545946 75.2724C0.277878 75.5457 0.0995452 75.8935 0.0345684 76.2699C-0.0268129 76.6389 -0.00628139 77.0168 0.0947269 77.3771C0.19491 77.7298 0.346967 78.066 0.545946 78.3745L0.696343 78.6039L0.866812 78.8234L1.04729 79.0328L1.13753 79.1326V79.1825L1.50851 79.5316L1.92965 79.8906C2.07003 80.0103 2.22043 80.1101 2.37084 80.2198C2.52124 80.3295 2.67162 80.4293 2.82202 80.529C3.46269 80.9429 4.13293 81.3096 4.82739 81.6262C5.1683 81.7958 5.52929 81.9454 5.88022 82.095C6.23116 82.2447 6.60216 82.3843 6.98318 82.504C7.72517 82.7733 8.49723 82.9927 9.29938 83.1922C10.1015 83.3917 10.9137 83.5513 11.7459 83.691C12.5782 83.8306 13.4404 83.9004 14.3028 83.9603C16.0943 84.0677 17.8924 83.9571 19.6571 83.6311C21.512 83.2983 23.2875 82.6216 24.8911 81.6362L25.1919 81.4467L25.7734 81.0277L25.8436 80.9679L25.974 80.8582C26.3646 80.5208 26.7025 80.1275 26.9767 79.6912C27.4822 78.8377 27.7936 77.8843 27.8891 76.8983C27.9429 76.4043 27.9429 75.906 27.8891 75.4121V75.053L27.8189 74.6839C27.7659 74.4399 27.6955 74.1999 27.6084 73.9657C27.4373 73.4851 27.1752 73.0415 26.8363 72.6591C26.482 72.2644 26.0178 71.9832 25.5027 71.8511C25.2373 71.8059 24.966 71.8059 24.7006 71.8511C24.4311 71.8855 24.1698 71.9665 23.9285 72.0905C23.6899 72.2186 23.4733 72.3835 23.2868 72.5793C23.1082 72.7761 22.9595 72.9979 22.8456 73.2376C22.6222 73.7126 22.5026 74.2294 22.4947 74.7537C22.4899 75.5305 22.6293 76.3015 22.9058 77.0279C23.0071 77.2713 23.1244 77.5079 23.2567 77.7361C23.5347 78.1936 23.8718 78.6127 24.2594 78.983C25.0047 79.7208 25.8776 80.3189 26.8363 80.7485C27.0669 80.8682 27.3176 80.9579 27.5482 81.0577C27.7788 81.1574 28.0295 81.2372 28.2802 81.307C28.7703 81.4649 29.2691 81.5948 29.7741 81.696C30.7654 81.8916 31.7719 82.0018 32.7822 82.0252C34.8329 82.0738 36.8743 81.7354 38.7983 81.0277C39.2495 80.8781 39.7308 80.6387 40.192 80.4293L40.8538 80.0602L41.0142 79.9704L41.1746 79.8607L41.4855 79.6413C42.3167 79.067 43.0031 78.3091 43.4908 77.4269C43.551 77.3172 43.5911 77.1975 43.6513 77.0878C43.7053 76.9756 43.7489 76.8587 43.7816 76.7387L43.8919 76.3796C43.8919 76.2599 43.8919 76.1302 43.9521 76.0105C44.0229 75.526 44.0059 75.0328 43.9019 74.5542C43.7964 74.0837 43.6098 73.6349 43.3505 73.2276C43.1069 72.807 42.7345 72.475 42.2876 72.28C42.049 72.2082 41.7943 72.2082 41.5557 72.28C41.3174 72.3378 41.0992 72.4584 40.924 72.6291C40.5855 72.9701 40.3674 73.4111 40.3023 73.8859C40.23 74.3475 40.2504 74.8188 40.3625 75.2724C40.4193 75.497 40.493 75.7171 40.5831 75.9307C40.6684 76.1405 40.769 76.3439 40.8839 76.5392C41.3416 77.3327 41.972 78.0143 42.7288 78.5341C43.4691 79.0413 44.2892 79.4222 45.1553 79.6612C46.8247 80.0725 48.5601 80.1471 50.2589 79.8807C50.67 79.8208 51.0711 79.741 51.4722 79.6612C51.6727 79.6612 51.8632 79.5715 52.0638 79.5216L52.6453 79.372L52.9361 79.2922H53.2169L53.7683 79.1326L54.8613 78.7934C57.3377 77.875 59.9008 77.2067 62.5117 76.7985C63.0574 76.7321 63.6064 76.6954 64.1561 76.6888H64.9583C65.1989 76.6888 65.4396 76.6888 65.6802 76.7486C66.5505 76.8313 67.4045 77.0361 68.217 77.3571C69.3671 77.8499 70.4093 78.5615 71.2852 79.4518C71.596 79.7709 71.8367 80.0203 71.9971 80.1899L72.2378 80.4492C72.3114 80.5209 72.4083 80.564 72.5111 80.5707C72.6138 80.5774 72.7156 80.5473 72.798 80.4858C72.8804 80.4244 72.938 80.3356 72.9603 80.2356C72.9825 80.1355 72.9681 80.0309 72.9196 79.9405L72.7291 79.6213C72.5411 79.3053 72.3369 78.999 72.1174 78.7037C71.967 78.5141 71.8066 78.2947 71.6061 78.0653C71.4055 77.8359 71.4055 77.8359 71.2852 77.7162L70.9142 77.3471C70.3146 76.7797 69.6399 76.2965 68.9088 75.9108C67.9622 75.4501 66.946 75.1468 65.9008 75.0131L65.4696 74.9632H64.1662C63.8653 74.9632 63.5545 74.9632 63.2537 74.9632H62.7825L62.3112 75.023C60.9873 75.2014 59.6842 75.5088 58.4208 75.9407C57.759 76.1502 57.0972 76.3995 56.4154 76.6589L54.4101 77.4568L53.4074 77.8758L52.876 78.0852L52.7456 78.1351H52.6152L52.3445 78.2249L51.8131 78.4044C51.6326 78.4643 51.4521 78.5341 51.2717 78.584C50.9007 78.6837 50.5297 78.7934 50.1587 78.8832C48.6016 79.2724 46.9814 79.3437 45.3959 79.0927C44.5771 78.9299 43.7911 78.6333 43.0697 78.2149C42.3329 77.7783 41.7082 77.1773 41.2448 76.4594C41.1237 76.2747 41.0165 76.0813 40.924 75.8809C40.8298 75.685 40.7527 75.4814 40.6934 75.2724C40.5746 74.8509 40.5406 74.4103 40.5931 73.9757C40.6392 73.5379 40.8296 73.1276 41.1345 72.8087C41.2861 72.6549 41.4767 72.5446 41.686 72.4895C41.8952 72.4262 42.1185 72.4262 42.3277 72.4895C42.7561 72.6646 43.1104 72.9818 43.3304 73.3872C43.688 73.9746 43.8679 74.652 43.8483 75.3384C43.8287 76.0249 43.6106 76.6911 43.2201 77.2574C42.6998 77.9991 42.0133 78.6103 41.2147 79.0428C40.8056 79.2635 40.3838 79.46 39.9514 79.6313C39.5102 79.7809 39.0991 79.9405 38.6078 80.0602C36.7722 80.5604 34.8758 80.8054 32.9727 80.7884C31.0615 80.8108 29.1612 80.5003 27.3577 79.8707C26.4724 79.5558 25.6507 79.0863 24.9312 78.4842C24.5795 78.1951 24.2691 77.8595 24.0087 77.4868C23.8789 77.295 23.7617 77.0951 23.6578 76.8883C23.3654 76.2618 23.2018 75.5836 23.1765 74.8934C23.1576 74.4347 23.2433 73.9778 23.4272 73.5568C23.5186 73.3506 23.6403 73.159 23.7881 72.9882C23.9379 72.824 24.1141 72.6858 24.3095 72.5793C24.5038 72.478 24.7141 72.4106 24.9312 72.3798C25.147 72.3444 25.3671 72.3444 25.5829 72.3798C26.0174 72.4939 26.4081 72.7334 26.7059 73.068C27.0087 73.412 27.2404 73.812 27.3878 74.245C27.4638 74.4632 27.5241 74.6866 27.5682 74.9133L27.6284 75.2525V75.6115C27.6779 76.0691 27.6779 76.5305 27.6284 76.988C27.5063 77.8884 27.1843 78.7504 26.6859 79.5116C26.4502 79.8851 26.1596 80.2214 25.8236 80.5091L25.6832 80.6188L25.613 80.6687L25.0515 81.0477L24.7607 81.2173C23.8754 81.5831 22.9499 81.8442 22.0034 81.9953C21.1637 82.2574 20.3057 82.4574 19.4365 82.5938C18.5822 82.7176 17.7221 82.7975 16.8596 82.8331C16.4284 82.8331 16.0073 82.8331 15.5862 82.8331C15.1651 82.8331 14.7439 82.8331 14.3228 82.8331C12.7016 82.7293 11.0919 82.4924 9.50993 82.125C8.74789 81.9454 7.99588 81.7359 7.28397 81.4966C6.58216 81.2622 5.89276 80.9926 5.21845 80.6886C4.57345 80.4013 3.95014 80.0679 3.35345 79.6912C3.20304 79.6014 3.06267 79.5116 2.9223 79.4119C2.78192 79.3121 2.64155 79.2224 2.52123 79.1226L2.14021 78.8234L1.75918 78.4842L1.67898 78.4044L1.52859 78.2349L1.3882 78.0653L1.25784 77.8858C1.09398 77.6531 0.965585 77.3977 0.876818 77.1277C0.788409 76.9005 0.760417 76.6544 0.795546 76.4133C0.830675 76.1721 0.92775 75.9441 1.07737 75.7512C1.23666 75.5889 1.43935 75.4754 1.66148 75.4241C1.88361 75.3728 2.11586 75.386 2.33072 75.4619C2.79738 75.6105 3.21834 75.8749 3.55399 76.23L3.68435 76.3596L3.8147 76.5093L3.87486 76.5791L3.98514 76.7187L4.19573 77.008L4.36616 77.3072C4.4754 77.4991 4.56927 77.6992 4.64691 77.9057C4.64691 78.0054 4.70707 78.1052 4.73715 78.2049V78.3546C4.73715 78.4044 4.73715 78.4543 4.73715 78.5042V78.8034C4.73715 78.9032 4.73715 78.9996 4.73715 79.0927V79.6513C4.66414 79.9975 4.54616 80.3328 4.38621 80.6487C4.12254 81.1426 3.78439 81.5933 3.38352 81.9853C3.13304 82.2305 2.86497 82.4572 2.58139 82.6636L2.30064 82.8331Z" fill="#C09068"/>
<path d="M82.827 2.28866L82.6466 2.60786C82.464 2.91144 82.2596 3.20146 82.0349 3.47564C81.6611 3.9222 81.2176 4.30611 80.7214 4.61273C80.4085 4.80571 80.0714 4.95665 79.7187 5.0616L79.4179 5.12144H78.4253C78.3651 5.12144 78.3049 5.12144 78.2548 5.12144H78.0843C77.9741 5.12144 77.8537 5.12146 77.7334 5.04166C77.496 4.9701 77.2647 4.88003 77.0416 4.77233L76.7007 4.60278L76.3698 4.39329L76.1993 4.28358L76.1191 4.22374L75.9687 4.10405L75.8083 3.96439C75.3538 3.57271 75.0085 3.07117 74.8056 2.5081C74.6953 2.18768 74.6643 1.84551 74.7153 1.51064C74.746 1.3303 74.8034 1.15551 74.8858 0.991976C74.9749 0.825376 75.0899 0.673864 75.2267 0.543107C75.5014 0.276435 75.8511 0.0990312 76.2294 0.0343928C76.6003 -0.0266687 76.9802 -0.00624419 77.3424 0.094238C77.697 0.193899 78.0349 0.345164 78.345 0.543107L78.5757 0.69272L78.7963 0.862301L79.0068 1.04184L79.1071 1.1316H79.1572L79.5082 1.50066L79.8691 1.91961C79.9894 2.05925 80.0897 2.20887 80.2 2.35849C80.3103 2.50811 80.4106 2.65771 80.5108 2.80733C80.9269 3.44465 81.2955 4.11141 81.6138 4.80225C81.7842 5.14139 81.9346 5.50049 82.0851 5.8496C82.2355 6.19871 82.3758 6.56778 82.4962 6.94681C82.7669 7.68493 82.9875 8.45298 83.188 9.25094C83.3885 10.0489 83.549 10.8569 83.6893 11.6847C83.8297 12.5126 83.8999 13.3704 83.9601 14.2283C84.068 16.0105 83.9569 17.7992 83.6292 19.5547C83.2946 21.3999 82.6143 23.1662 81.6238 24.7614L81.4333 25.0607L81.0122 25.6392L80.952 25.709L80.8417 25.8387C80.5026 26.2272 80.1072 26.5634 79.6686 26.8362C78.8106 27.339 77.8523 27.6489 76.8611 27.7438C76.3645 27.7973 75.8636 27.7973 75.3671 27.7438H75.0061L74.6351 27.674C74.3898 27.6212 74.1486 27.5512 73.9132 27.4646C73.43 27.2944 72.9842 27.0337 72.5997 26.6965C72.2029 26.344 71.9203 25.8823 71.7875 25.3699C71.7421 25.1058 71.7421 24.836 71.7875 24.5719C71.822 24.3039 71.9035 24.044 72.0281 23.8039C72.1569 23.5665 72.3227 23.351 72.5195 23.1655C72.7173 22.9878 72.9403 22.84 73.1812 22.7266C73.6588 22.5044 74.1782 22.3854 74.7053 22.3775C75.4861 22.3728 76.2612 22.5114 76.9914 22.7865C77.2361 22.8873 77.4739 23.0039 77.7033 23.1356C78.1631 23.4121 78.5845 23.7475 78.9567 24.133C79.6984 24.8744 80.2996 25.7428 80.7314 26.6965C80.8518 26.9259 80.942 27.1753 81.0423 27.4047C81.1425 27.6341 81.2227 27.8835 81.2929 28.1329C81.4517 28.6204 81.5822 29.1166 81.684 29.6191C81.8806 30.6052 81.9913 31.6064 82.0149 32.6114C82.0637 34.6515 81.7235 36.6822 81.0122 38.5962C80.8618 39.0451 80.6211 39.5238 80.4106 39.9827L80.0396 40.641L79.9493 40.8006L79.839 40.9602L79.6185 41.2694C79.0412 42.0963 78.2793 42.7791 77.3925 43.2643C77.2822 43.3242 77.1619 43.3641 77.0516 43.4239C76.9388 43.4776 76.8213 43.521 76.7006 43.5536L76.3397 43.6633C76.2194 43.6633 76.089 43.6633 75.9687 43.7231C75.4816 43.7936 74.9858 43.7767 74.5048 43.6733C74.0318 43.5683 73.5806 43.3827 73.1712 43.1247C72.7484 42.8824 72.4146 42.5119 72.2187 42.0674C72.1464 41.83 72.1464 41.5766 72.2187 41.3392C72.2767 41.1022 72.3979 40.8851 72.5696 40.7108C72.9124 40.3741 73.3557 40.1571 73.833 40.0924C74.297 40.0204 74.7707 40.0408 75.2267 40.1522C75.4525 40.2088 75.6737 40.2821 75.8885 40.3717C76.0993 40.4566 76.3038 40.5566 76.5001 40.6709C77.2978 41.1263 77.983 41.7534 78.5055 42.5062C79.0153 43.2427 79.3982 44.0585 79.6385 44.9201C80.0519 46.5808 80.1269 48.3071 79.8591 49.9972C79.7989 50.4061 79.7187 50.8051 79.6385 51.2041C79.6385 51.4036 79.5483 51.5931 79.4981 51.7926L79.3477 52.3711L79.2675 52.6604V52.9397L79.1071 53.4883L78.7662 54.5755C77.8429 57.0391 77.1711 59.5888 76.7608 62.1861C76.694 62.729 76.6572 63.2751 76.6505 63.822V64.6199C76.6505 64.8593 76.6505 65.0987 76.7107 65.3381C76.7937 66.2038 76.9996 67.0534 77.3223 67.8617C77.8177 69.0058 78.533 70.0426 79.4279 70.9139C79.7488 71.2231 79.9995 71.4625 80.1699 71.6221L80.4306 71.8615C80.5027 71.9347 80.546 72.0312 80.5527 72.1334C80.5595 72.2356 80.5292 72.3369 80.4674 72.4188C80.4056 72.5008 80.3164 72.558 80.2158 72.5802C80.1153 72.6024 80.0101 72.588 79.9193 72.5397L79.5984 72.3502C79.2807 72.1632 78.9728 71.9601 78.6759 71.7418C78.4854 71.5922 78.2648 71.4326 78.0342 71.2331C77.8036 71.0336 77.8036 71.0336 77.6833 70.9139L77.3123 70.5448C76.7419 69.9484 76.2561 69.2772 75.8684 68.5499C75.4053 67.6082 75.1005 66.5973 74.966 65.5575L74.9159 65.1286V63.8319C74.9159 63.5327 74.9159 63.2235 74.9159 62.9242V62.4554L74.976 61.9866C75.1554 60.6696 75.4643 59.3734 75.8985 58.1165C76.1091 57.4582 76.3597 56.7998 76.6204 56.1216L77.4226 54.1266L77.8437 53.1292L78.0543 52.6005L78.1044 52.4709V52.3412L78.1946 52.0719L78.3751 51.5432C78.4353 51.3637 78.5055 51.1841 78.5556 51.0046C78.6559 50.6355 78.7662 50.2665 78.8564 49.8974C79.2476 48.3485 79.3193 46.7367 79.067 45.1595C78.9033 44.3449 78.6052 43.563 78.1846 42.8454C77.7457 42.1124 77.1416 41.4909 76.4199 41.03C76.2342 40.9095 76.0398 40.8028 75.8383 40.7108C75.6414 40.6171 75.4368 40.5404 75.2267 40.4814C74.803 40.3633 74.3601 40.3294 73.9232 40.3817C73.4831 40.4275 73.0707 40.6169 72.7501 40.9203C72.5954 41.0711 72.4846 41.2606 72.4292 41.4689C72.3656 41.677 72.3656 41.8992 72.4292 42.1073C72.6052 42.5334 72.9241 42.8859 73.3316 43.1047C73.9221 43.4605 74.6031 43.6394 75.2931 43.6199C75.9831 43.6004 76.6528 43.3835 77.222 42.995C77.9676 42.4774 78.5821 41.7944 79.0168 41.0001C79.2387 40.5931 79.4362 40.1734 79.6084 39.7433C79.7588 39.3044 79.9193 38.8954 80.0396 38.4067C80.5424 36.5807 80.7887 34.6942 80.7715 32.801C80.7941 30.8997 80.4819 29.0093 79.8491 27.2152C79.5326 26.3345 79.0606 25.5171 78.4553 24.8013C78.1647 24.4515 77.8273 24.1427 77.4527 23.8837C77.2599 23.7545 77.0589 23.6379 76.851 23.5346C76.2213 23.2437 75.5395 23.081 74.8457 23.0558C74.3846 23.037 73.9253 23.1223 73.5021 23.3051C73.2948 23.3961 73.1022 23.5171 72.9306 23.6642C72.7655 23.8132 72.6266 23.9885 72.5195 24.1829C72.4177 24.3762 72.3499 24.5853 72.3189 24.8013C72.2834 25.016 72.2834 25.235 72.3189 25.4497C72.4336 25.8818 72.6744 26.2705 73.0108 26.5668C73.3566 26.868 73.7586 27.0985 74.1939 27.2451C74.4133 27.3208 74.6378 27.3808 74.8657 27.4246L75.2066 27.4845H75.5676C76.0275 27.5337 76.4914 27.5337 76.9513 27.4845C77.8564 27.363 78.7229 27.0427 79.4881 26.5469C79.8636 26.3125 80.2016 26.0233 80.4908 25.6891L80.6011 25.5494L80.6512 25.4796L81.0322 24.921L81.2027 24.6318C81.5705 23.751 81.8329 22.8304 81.9848 21.8887C82.2482 21.0535 82.4493 20.2 82.5864 19.3352C82.7109 18.4855 82.7912 17.6298 82.827 16.7718C82.827 16.3429 82.827 15.9239 82.827 15.505C82.827 15.0861 82.827 14.6671 82.827 14.2482C82.7227 12.6355 82.4846 11.0341 82.1151 9.4604C81.9346 8.70233 81.7241 7.95423 81.4834 7.24604C81.2479 6.54788 80.9768 5.86207 80.6713 5.19127C80.3824 4.54963 80.0473 3.92957 79.6686 3.33598C79.5783 3.18636 79.4881 3.04673 79.3878 2.90708C79.2876 2.76744 79.1973 2.6278 79.0971 2.5081L78.7963 2.12906L78.4553 1.75002L78.3751 1.67024L78.2047 1.52063L78.0342 1.38097L77.8537 1.25129C77.6199 1.08829 77.3631 0.96056 77.0917 0.872255C76.8633 0.784306 76.6159 0.75646 76.3735 0.791407C76.1311 0.826353 75.9019 0.922922 75.708 1.07176C75.5448 1.23022 75.4307 1.43186 75.3792 1.65283C75.3277 1.8738 75.3409 2.10484 75.4172 2.31858C75.5666 2.78281 75.8323 3.20158 76.1893 3.53549L76.3196 3.66516L76.47 3.79484L76.5402 3.85468L76.6806 3.96439L76.9714 4.17388L77.2722 4.34343C77.465 4.45209 77.6662 4.54547 77.8738 4.62271C77.9741 4.62271 78.0743 4.68256 78.1746 4.71248H78.325C78.3751 4.71248 78.4253 4.71248 78.4754 4.71248H78.7762C78.8765 4.71248 78.9734 4.71248 79.067 4.71248H79.6285C79.9765 4.63985 80.3136 4.52249 80.6312 4.36336C81.1276 4.10107 81.5807 3.76468 81.9748 3.3659C82.2212 3.11673 82.4491 2.85005 82.6566 2.56795L82.827 2.28866Z" fill="#C09068"/>
</svg>
